<svg width="375" height="812" viewBox="0 0 375 812" fill="none" xmlns="http://www.w3.org/2000/svg">
<rect width="376" height="812" fill="white"/>
<path d="M376 209L-1 371.667V812H376V209Z" fill="#ED1C23"/>
<circle cx="264" cy="205" r="19" fill="white" fill-opacity="0.6"/>
<path d="M274.034 195.969C272.764 194.7 271.076 194 269.28 194C267.181 194 265.262 194.959 264 196.562C262.744 194.966 260.828 194 258.72 194C256.924 194 255.236 194.7 253.966 195.969C251.345 198.591 251.345 202.856 253.966 205.477L263.726 215.238C263.802 215.313 263.901 215.351 264 215.351C264.099 215.351 264.198 215.313 264.274 215.238L274.034 205.477C276.655 202.856 276.655 198.59 274.034 195.969Z" fill="#ED1C23"/>
<g filter="url(#filter0_d)">
<path d="M255.764 292.226C255.764 327.447 227.275 356 192.129 356C156.97 356 128.496 327.447 128.496 292.226C128.496 257 156.972 228.451 192.129 228.451C227.275 228.452 255.764 257 255.764 292.226Z" fill="#ED1B23"/>
</g>
<path d="M220.075 269.118C210.544 263.98 198.046 270.426 192.219 279.319C186.384 270.426 173.229 263.978 163.697 269.118C153.611 274.544 151.23 285.08 156.643 295.188C162.068 305.298 192.158 329.922 192.219 329.621C192.274 329.922 222.361 305.297 227.788 295.188C233.19 285.08 230.164 274.544 220.075 269.118Z" fill="white"/>
<path d="M164.324 220.18C164.324 224.698 160.671 228.36 156.162 228.36C151.655 228.36 148 224.698 148 220.18C148 215.662 151.655 212 156.162 212C160.67 212 164.324 215.662 164.324 220.18Z" fill="#ED1B23"/>
<path d="M157.094 215.651H155.231V224.709H157.094V215.651Z" fill="white"/>
<path d="M160.684 219.248H151.643V221.113H160.684V219.248Z" fill="white"/>
<g filter="url(#filter1_d)">
<path d="M148 349.041C148 359.559 139.496 368.084 129 368.084C118.508 368.084 110 359.559 110 349.041C110 338.525 118.508 330 129 330C139.495 330 148 338.525 148 349.041Z" fill="#ED1B23"/>
</g>
<path d="M131.169 338.498H126.833V359.586H131.169V338.498Z" fill="white"/>
<path d="M139.526 346.872H118.48V351.213H139.526V346.872Z" fill="white"/>
<path fill-rule="evenodd" clip-rule="evenodd" d="M225.829 363.738L204.841 329.786C203.18 327.101 204.012 323.574 206.698 321.912C209.383 320.253 212.911 321.085 214.571 323.77L229.619 348.104C227.959 345.419 228.792 341.89 231.476 340.231C233.874 338.749 236.939 339.252 238.751 341.286C237.743 338.756 238.664 335.788 241.06 334.307C243.562 332.76 246.797 333.377 248.571 335.643C247.335 333.045 248.229 329.875 250.731 328.327C253.416 326.667 256.944 327.5 258.604 330.185L271.564 351.151C271.735 351.424 271.878 351.708 271.996 351.996L276.465 359.229C280.066 365.049 278.261 372.695 272.439 376.292L254.878 387.15C250.267 390 244.514 389.46 240.529 386.219C240.335 386.128 240.143 386.025 239.955 385.909L211.218 368.159C208.533 366.5 207.699 362.972 209.358 360.286C211.017 357.602 214.544 356.766 217.23 358.427L225.829 363.738Z" fill="white"/>
<path fill-rule="evenodd" clip-rule="evenodd" d="M225.829 363.738L204.841 329.786C203.18 327.101 204.012 323.574 206.698 321.912C209.383 320.253 212.911 321.085 214.571 323.77L229.619 348.104C227.959 345.419 228.792 341.89 231.476 340.231C233.873 338.75 236.939 339.252 238.751 341.286C237.743 338.756 238.664 335.788 241.06 334.307C243.562 332.76 246.797 333.377 248.571 335.643C247.335 333.045 248.229 329.875 250.731 328.327C253.416 326.667 256.944 327.5 258.604 330.185L271.564 351.151C271.734 351.424 271.878 351.708 271.996 351.996L276.465 359.229C280.066 365.049 278.261 372.695 272.439 376.292L254.878 387.15C250.267 390 244.513 389.46 240.529 386.219C240.335 386.128 240.143 386.025 239.955 385.909L211.218 368.159C208.533 366.5 207.699 362.972 209.358 360.286C211.017 357.602 214.544 356.766 217.23 358.427L225.829 363.738ZM243.275 327.08C244.24 325.418 245.616 323.962 247.363 322.882C253.054 319.364 260.532 321.128 264.049 326.819L277.009 347.785C277.252 348.174 277.466 348.573 277.657 348.978L281.912 355.863C287.369 364.688 284.633 376.283 275.806 381.739L258.243 392.594C251.465 396.785 243.057 396.144 237.047 391.623C236.893 391.538 236.741 391.449 236.589 391.355L207.853 373.606C202.162 370.09 200.394 362.615 203.911 356.922C205.55 354.267 208.053 352.465 210.835 351.658L199.395 333.153C195.877 327.462 197.641 319.986 203.332 316.469C209.024 312.95 216.499 314.713 220.016 320.403L228.7 334.445C230.267 333.593 231.947 333.122 233.633 333.005C234.599 331.366 235.964 329.93 237.693 328.861C239.441 327.782 241.356 327.199 243.275 327.08Z" fill="black"/>
<ellipse opacity="0.4" cx="187.5" cy="412.5" rx="77.5" ry="6.5" fill="black"/>
<path d="M172.916 141.49H167.401L169.658 120.06H186.661L186.211 124.346H174.723L174.193 129.401H183.229L182.779 133.687H173.736L172.916 141.49Z" fill="#ED1C24"/>
<path d="M192.481 137.204L194.281 120.06H188.766L186.509 141.49H201.538L203.476 137.204H192.481Z" fill="#ED1C24"/>
<path d="M219.717 120.06H213.585L203.215 141.49H209.187L210.965 137.661L212.765 133.687L215.973 126.493L217.664 133.687H214.565L212.765 137.661H218.622L219.594 141.49H225.567L219.717 120.06Z" fill="#ED1C24"/>
<path d="M245.197 130.039C244.356 129.104 242.933 128.632 240.93 128.632H235.415C234.188 128.632 233.637 128.016 233.767 126.798L233.833 126.181C233.963 124.955 234.638 124.346 235.865 124.346H245.285L247.89 120.06H235.095C232.947 120.06 231.344 120.546 230.269 121.518C229.195 122.49 228.549 124.042 228.325 126.188L228.223 127.109C227.998 129.249 228.325 130.808 229.188 131.78C230.059 132.752 231.561 133.237 233.702 133.237H240.749L240.458 135.993C240.415 136.465 240.234 136.834 239.929 137.11C239.624 137.386 239.232 137.531 238.76 137.531C237.033 137.531 234.029 137.647 229.595 137.465L227.149 141.505C229.747 141.556 230.574 141.599 233.434 141.628L236.242 141.657C237.403 141.701 238.506 141.708 239.544 141.708C241.54 141.708 243.064 141.345 244.102 140.403C245.139 139.467 245.763 138.002 245.974 135.993L246.134 134.463C246.351 132.447 246.032 130.975 245.197 130.039Z" fill="#ED1C24"/>
<path d="M266.33 141.49H260.815L261.729 132.766H254.073L253.159 141.49H247.643L249.9 120.06H255.416L254.53 128.48H262.186L263.065 120.06H268.58L266.33 141.49Z" fill="#ED1C24"/>
<path d="M181.93 153.253L178.083 159.041H174.839L172.205 153.261L171.254 162.282H167.089L168.794 146.088H173.192L176.922 154.646L182.452 146.088H186.85L185.144 162.282H180.979L181.93 153.253Z" fill="#404041"/>
<path d="M206.06 146.081H215.784C217.403 146.081 218.542 146.444 219.202 147.176C219.855 147.909 220.102 149.083 219.928 150.701L219.71 152.782C219.572 154.066 219.26 155.059 218.76 155.763C218.259 156.473 217.533 156.945 216.582 157.177L218.941 162.268H214.427L212.272 157.409H209.035L208.527 162.268H204.361L206.06 146.081ZM215.762 150.708C215.857 149.78 215.443 149.323 214.521 149.323H209.891L209.383 154.182H214.013C214.935 154.182 215.45 153.717 215.545 152.796L215.762 150.708Z" fill="#404041"/>
<path d="M225.197 162.275H221.031L222.737 146.081H226.902L226.234 152.441H227.287L232.599 146.081H236.997L230.589 154.066L235.27 162.275H230.872L226.946 155.683H225.893L225.197 162.275Z" fill="#404041"/>
<path d="M249.523 162.275H236.677L238.383 146.081H251.228L250.887 149.315H242.207L241.881 152.441H248.71L248.369 155.683H241.54L241.184 159.033H249.864L249.523 162.275Z" fill="#404041"/>
<path d="M259.763 162.275H255.597L256.961 149.323H252.099L252.44 146.088H266.33L265.989 149.323H261.127L259.763 162.275Z" fill="#404041"/>
<path d="M198.773 146.081H194.136L186.298 162.275H190.812L192.155 159.381L193.519 156.379L195.943 150.94L197.22 156.379H194.876L193.512 159.381H197.939L198.679 162.275H203.193L198.773 146.081Z" fill="#404041"/>
<path d="M133.365 152.173L125.382 160.15C122.573 153.406 118.458 142.179 115.686 135.486L117.595 117.232C118.843 117.602 119.837 118.487 120.323 119.72L120.636 120.503L123.11 126.732L123.894 128.712L126.376 134.978L126.674 135.732C126.898 136.349 133.365 152.173 133.365 152.173Z" fill="url(#paint0_linear)" stroke="#252526" stroke-width="0.25" stroke-miterlimit="10"/>
<path d="M148.445 120.757L146.166 142.491L143.031 147.662L135.723 159.715L134.845 161.144L134.468 161.76H134.475L134.279 162.087C133.51 163.348 132.153 164.132 130.738 164.132H129.33C127.914 164.132 126.717 163.341 126.216 162.079L125.955 161.427L125.578 160.469L125.106 159.251L131.695 148.387L136.746 140.055L139.816 134.985L143.597 128.749L146.261 124.354L148.126 121.279L148.336 120.931L148.445 120.757Z" fill="url(#paint1_linear)" stroke="#303131" stroke-width="0.4" stroke-miterlimit="10"/>
<path d="M154.853 117.015C156.9 117.015 158.395 118.683 158.177 120.728L154.018 160.397C153.801 162.442 151.965 164.11 149.911 164.11H147.589C145.542 164.11 144.047 162.442 144.258 160.397L147.857 121.714L149.098 119.633L150.68 117.015H154.853Z" fill="#404041" stroke="#303131" stroke-width="0.4" stroke-miterlimit="10"/>
<path d="M118.335 145.465L116.767 160.426C116.55 162.471 114.706 164.139 112.66 164.139H110.345C108.298 164.139 106.803 162.471 107.021 160.426L108.211 149.062C108.422 147.075 110.207 145.465 112.195 145.465H118.335Z" fill="#ED1C24" stroke="#D52229" stroke-width="0.1" stroke-miterlimit="10"/>
<path d="M136.434 135.747L130.991 144.725L130.542 145.465H112.195C110.207 145.465 108.422 147.075 108.211 149.062L109.227 139.344C109.438 137.357 111.223 135.747 113.211 135.747H136.434Z" fill="#ED1C24" stroke="#D52229" stroke-width="0.1" stroke-miterlimit="10"/>
<path d="M120.302 126.74L119.358 135.74H113.211C111.223 135.74 109.438 137.35 109.227 139.337L110.171 130.337C110.381 128.35 112.166 126.74 114.155 126.74H120.302Z" fill="#ED1C24" stroke="#D52229" stroke-width="0.1" stroke-miterlimit="10"/>
<path d="M147.785 117.015L147.001 118.32L146.965 118.378L146.899 118.487L146.885 118.501L146.877 118.516L145.941 120.06L144.083 123.128L141.877 126.769L125.469 126.747H123.313H114.155C112.166 126.747 110.381 128.357 110.171 130.344L111.179 120.735C111.383 118.777 113.074 117.167 115.018 117.029H117L117.014 117.015H147.785Z" fill="#ED1C24" stroke="#D52229" stroke-width="0.1" stroke-miterlimit="10"/>
<path d="M118.342 145.45L116.775 160.411C116.557 162.456 114.714 164.124 112.667 164.124H110.345C108.298 164.124 106.803 162.456 107.021 160.411L108.211 149.047C108.422 147.06 110.207 145.45 112.195 145.45H118.342Z" fill="url(#paint2_linear)"/>
<path d="M136.434 135.732L130.991 144.71L130.542 145.45H112.195C110.207 145.45 108.422 147.06 108.211 149.047L109.227 139.329C109.438 137.342 111.223 135.732 113.211 135.732H136.434Z" fill="url(#paint3_linear)"/>
<path d="M120.302 126.732L119.358 135.732H113.219C111.23 135.732 109.445 137.342 109.234 139.329L110.178 130.329C110.388 128.342 112.174 126.732 114.162 126.732H120.302Z" fill="url(#paint4_linear)"/>
<path d="M147.792 117L147.008 118.305L146.972 118.363L146.906 118.472L146.892 118.487L146.877 118.508L145.941 120.053L144.083 123.121L141.877 126.761L125.469 126.732H123.313H114.162C112.174 126.732 110.388 128.342 110.178 130.329L111.187 120.72C111.39 118.762 113.081 117.152 115.019 117.015H117L117.014 117H147.792Z" fill="url(#paint5_linear)"/>
<defs>
<filter id="filter0_d" x="114.496" y="221.451" width="155.267" height="155.549" filterUnits="userSpaceOnUse" color-interpolation-filters="sRGB">
<feFlood flood-opacity="0" result="BackgroundImageFix"/>
<feColorMatrix in="SourceAlpha" type="matrix" values="0 0 0 0 0 0 0 0 0 0 0 0 0 0 0 0 0 0 127 0" result="hardAlpha"/>
<feOffset dy="7"/>
<feGaussianBlur stdDeviation="7"/>
<feColorMatrix type="matrix" values="0 0 0 0 0 0 0 0 0 0 0 0 0 0 0 0 0 0 0.25 0"/>
<feBlend mode="normal" in2="BackgroundImageFix" result="effect1_dropShadow"/>
<feBlend mode="normal" in="SourceGraphic" in2="effect1_dropShadow" result="shape"/>
</filter>
<filter id="filter1_d" x="96" y="323" width="66" height="66.0839" filterUnits="userSpaceOnUse" color-interpolation-filters="sRGB">
<feFlood flood-opacity="0" result="BackgroundImageFix"/>
<feColorMatrix in="SourceAlpha" type="matrix" values="0 0 0 0 0 0 0 0 0 0 0 0 0 0 0 0 0 0 127 0" result="hardAlpha"/>
<feOffset dy="7"/>
<feGaussianBlur stdDeviation="7"/>
<feColorMatrix type="matrix" values="0 0 0 0 0 0 0 0 0 0 0 0 0 0 0 0 0 0 0.25 0"/>
<feBlend mode="normal" in2="BackgroundImageFix" result="effect1_dropShadow"/>
<feBlend mode="normal" in="SourceGraphic" in2="effect1_dropShadow" result="shape"/>
</filter>
<linearGradient id="paint0_linear" x1="136.566" y1="138.693" x2="122.362" y2="137.204" gradientUnits="userSpaceOnUse">
<stop stop-color="#231F20"/>
<stop offset="1" stop-color="#404041"/>
</linearGradient>
<linearGradient id="paint1_linear" x1="148.282" y1="142.447" x2="136.435" y2="141.205" gradientUnits="userSpaceOnUse">
<stop stop-color="#231F20"/>
<stop offset="1" stop-color="#404041"/>
</linearGradient>
<linearGradient id="paint2_linear" x1="115.591" y1="125.184" x2="115.591" y2="163.908" gradientUnits="userSpaceOnUse">
<stop stop-color="#B11117"/>
<stop offset="1" stop-color="#B11117" stop-opacity="0"/>
</linearGradient>
<linearGradient id="paint3_linear" x1="147.651" y1="142.389" x2="111.09" y2="138.555" gradientUnits="userSpaceOnUse">
<stop stop-color="#B11117"/>
<stop offset="1" stop-color="#B11117" stop-opacity="0"/>
</linearGradient>
<linearGradient id="paint4_linear" x1="106.301" y1="133.029" x2="122.12" y2="134.688" gradientUnits="userSpaceOnUse">
<stop stop-color="#B11117"/>
<stop offset="1" stop-color="#B11117" stop-opacity="0"/>
</linearGradient>
<linearGradient id="paint5_linear" x1="168.428" y1="123.665" x2="118.181" y2="118.395" gradientUnits="userSpaceOnUse">
<stop stop-color="#B11117"/>
<stop offset="1" stop-color="#B11117" stop-opacity="0"/>
</linearGradient>
</defs>
</svg>
