<svg width="375" height="812" viewBox="0 0 375 812" fill="none" xmlns="http://www.w3.org/2000/svg">
<rect width="376" height="812" fill="white"/>
<path d="M376 209L-1 371.667V812H376V209Z" fill="#ED1C23"/>
<path d="M255.84 359.883C255.84 359.883 256.444 341.454 261.882 336.469C267.32 331.484 271.938 332.542 276.125 329.067C280.311 325.593 280.613 317.738 285.145 315.321C289.676 312.904 292.546 313.961 295.265 311.092C297.984 308.221 302.969 304.144 305.688 307.769C308.407 311.394 303.121 318.248 301.761 323.356C300.401 328.463 293.151 330.729 288.166 336.469C283.181 342.209 285.296 355.2 273.514 359.127" fill="#CAE7FF"/>
<path d="M253.21 357.732C254.058 348.577 254.918 339.357 257.487 330.529C259.002 325.324 261.097 320.306 263.367 315.384C266.42 308.756 269.364 302.786 274.744 297.856C278.595 294.325 286.628 292.434 289.373 294.915C294.408 299.468 291.348 308.163 289.324 312.428C283.48 324.74 271.234 332.876 267.487 338.142C263.74 343.406 260.74 349.396 260.098 355.826" fill="#DCEEFF"/>
<path d="M79.0735 307.31C79.0735 307.31 73.1333 310.484 73.4729 322.109C73.4729 322.109 77.7579 310.06 87.9834 310.357C87.9832 310.357 84.5461 306.342 79.0735 307.31Z" fill="#B2DBF7"/>
<path d="M98.6104 343.218C98.6104 343.218 101.56 321.557 95.8745 312.478C88.8487 301.258 79.0735 307.31 79.0735 307.31C79.0735 307.31 81.5553 306.749 84.5251 308.99C90.0178 313.134 96.0823 326.971 98.6104 343.218Z" fill="#CAE7FF"/>
<path d="M98.0225 342.115C98.0225 342.115 94.9986 322.777 100.414 312.688C105.83 302.599 118.441 298.516 122.885 290.227C122.885 290.227 128.17 305.795 115.078 312.808C107.14 317.061 99.5841 325.901 98.0225 342.115Z" fill="#DCEEFF"/>
<path d="M68.3562 286.324C68.3562 286.324 85.8294 299.874 91.6156 312.305C97.4016 324.736 96.4347 342.358 96.4347 342.358C96.4347 342.358 94.3149 334.55 81.9126 322.216C67.4935 307.874 68.3562 286.324 68.3562 286.324Z" fill="#DCEEFF"/>
<path d="M115.333 314.622C115.333 314.622 122.409 313.868 125.452 319.641C127.939 324.358 127.939 326.835 127.939 326.835C127.939 326.835 131.263 320.585 127.939 314.341C124.615 308.096 115.333 314.622 115.333 314.622Z" fill="#B2DBF7"/>
<path d="M99.3752 333.728C99.3752 333.728 99.9472 312.766 111.699 308.297C122.698 304.114 127.939 314.341 127.939 314.341C127.939 314.341 119.997 309.814 112.235 316.864C107.005 321.611 102.598 333.237 102.598 333.237" fill="#CAE7FF"/>
<path d="M111.282 332.686L107.586 358.493L105.482 373.167H89.624L83.8231 332.686C83.7356 332.053 84.2311 331.48 84.8754 331.48H110.235C110.88 331.48 111.37 332.053 111.282 332.686Z" fill="#E9F3FF"/>
<path d="M107.585 358.492L105.481 373.166H89.623L83.8221 332.685C83.7346 332.052 84.2301 331.479 84.8744 331.479H87.9426C89.5404 337.511 95.4616 356.245 107.585 358.492Z" fill="#DCEEFF"/>
<path d="M85.0568 380.737L105.948 361.395H273.074L291.507 380.737H85.0568Z" fill="#404041"/>
<path d="M270.461 363.6H106.101C103.388 363.6 101.189 361.327 101.189 358.522V255.627C101.189 252.822 103.388 250.548 106.101 250.548H270.461C273.174 250.548 275.372 252.822 275.372 255.627V358.523C275.373 361.327 273.174 363.6 270.461 363.6Z" fill="#404041"/>
<path d="M264.084 359.356H112.479C109.977 359.356 107.948 357.328 107.948 354.825V263.011C107.948 260.507 109.977 258.48 112.479 258.48H264.084C266.586 258.48 268.614 260.507 268.614 263.011V354.825C268.614 357.328 266.587 359.356 264.084 359.356Z" fill="#F0F1F7"/>
<path d="M265.634 258.904H111.267V358.932H265.634V258.904Z" fill="#F7F7FF"/>
<path d="M265.634 289.675V309.878L167.532 258.904H206.412L265.634 289.675Z" fill="white"/>
<path d="M265.634 324.35V351.248L111.267 271.041V258.904H139.675L265.634 324.35Z" fill="white"/>
<path d="M237.021 358.932H213.004L111.267 306.071V293.593L237.021 358.932Z" fill="white"/>
<path d="M109.783 258.904H107.162V358.931H109.783V258.904Z" fill="#404041"/>
<path d="M269.74 258.904H267.119V358.931H269.74V258.904Z" fill="#404041"/>
<path d="M189.965 258.904H186.935V358.931H189.965V258.904Z" fill="#E6E6F7"/>
<path d="M270.566 260.877C269.895 259.234 268.296 258.161 266.523 258.161H216.051H160.456H110.544C108.432 258.161 106.53 259.438 105.731 261.394L94.3572 289.24H154.329H222.18H282.152L270.566 260.877Z" fill="#ED1B23"/>
<path d="M100.381 299.307H100.261C97.0004 299.307 94.3567 296.665 94.3567 293.404V289.24H106.286V293.404C106.286 296.665 103.641 299.307 100.381 299.307Z" fill="#D80F1E"/>
<path d="M125.229 299.307H125.098C121.538 299.307 118.652 296.665 118.652 293.404V289.24H131.675V293.404C131.675 296.665 128.789 299.307 125.229 299.307Z" fill="#D80F1E"/>
<path d="M150.182 299.307H150.048C146.338 299.307 143.331 296.665 143.331 293.404V289.24H156.9V293.404C156.9 296.665 153.893 299.307 150.182 299.307Z" fill="#D80F1E"/>
<path d="M175.519 299.307H175.381C171.611 299.307 168.556 296.665 168.556 293.404V289.24H182.344V293.404C182.344 296.665 179.289 299.307 175.519 299.307Z" fill="#D80F1E"/>
<path d="M200.935 299.307H200.799C197.105 299.307 194.11 296.665 194.11 293.404V289.24H207.624V293.404C207.624 296.665 204.629 299.307 200.935 299.307Z" fill="#D80F1E"/>
<path d="M225.941 299.307H225.805C222.111 299.307 219.116 296.665 219.116 293.404V289.24H232.63V293.404C232.63 296.665 229.635 299.307 225.941 299.307Z" fill="#D80F1E"/>
<path d="M251.247 299.307H251.114C247.494 299.307 244.559 296.665 244.559 293.404V289.24H257.802V293.404C257.802 296.665 254.867 299.307 251.247 299.307Z" fill="#D80F1E"/>
<path d="M276.138 299.307H276.017C272.666 299.307 269.95 296.665 269.95 293.404V289.24H282.207V293.404C282.207 296.665 279.489 299.307 276.138 299.307Z" fill="#D80F1E"/>
<path d="M112.53 299.307H112.406C109.025 299.307 106.286 296.665 106.286 293.404V289.24H118.653V293.404C118.652 296.665 115.911 299.307 112.53 299.307Z" fill="#F4EFE9"/>
<path d="M137.56 299.307H137.444C134.258 299.307 131.675 296.665 131.675 293.404V289.24H143.331V293.404C143.33 296.665 140.747 299.307 137.56 299.307Z" fill="#F4EFE9"/>
<path d="M162.815 299.307H162.696C159.48 299.307 156.873 296.665 156.873 293.404V289.24H168.638V293.404C168.638 296.665 166.03 299.307 162.815 299.307Z" fill="#F4EFE9"/>
<path d="M188.313 299.307H188.195C184.979 299.307 182.371 296.665 182.371 293.404V289.24H194.136V293.404C194.136 296.665 191.53 299.307 188.313 299.307Z" fill="#F4EFE9"/>
<path d="M213.4 299.307H213.285C210.144 299.307 207.598 296.665 207.598 293.404V289.24H219.088V293.404C219.088 296.665 216.542 299.307 213.4 299.307Z" fill="#F4EFE9"/>
<path d="M238.683 299.307H238.562C235.271 299.307 232.604 296.665 232.604 293.404V289.24H244.642V293.404C244.642 296.665 241.973 299.307 238.683 299.307Z" fill="#F4EFE9"/>
<path d="M263.964 299.307H263.841C260.49 299.307 257.774 296.665 257.774 293.404V289.24H270.031V293.404C270.031 296.665 267.315 299.307 263.964 299.307Z" fill="#F4EFE9"/>
<path d="M194.164 298.652V260.13C194.164 256.866 191.518 254.22 188.254 254.22C184.99 254.22 182.344 256.866 182.344 260.13V298.652C182.344 301.916 184.99 304.562 188.254 304.562C191.518 304.562 194.164 301.916 194.164 298.652Z" fill="white"/>
<path d="M167.695 297.006C167.291 300.274 164.278 302.57 161.02 302.093C157.834 301.625 155.619 298.677 156.058 295.487L161.356 256.984C161.769 253.983 164.495 251.855 167.507 252.183C170.611 252.521 172.839 255.334 172.456 258.433L167.695 297.006Z" fill="white"/>
<path d="M142.064 295.088C141.329 298.254 138.131 300.195 134.983 299.386C131.848 298.58 129.983 295.359 130.844 292.239L141.352 254.168C142.103 251.448 144.964 249.896 147.653 250.75C150.125 251.536 151.579 254.089 150.992 256.615L142.064 295.088Z" fill="white"/>
<path d="M208.602 297.101C209.017 300.322 211.992 302.577 215.206 302.106C218.419 301.635 220.621 298.622 220.096 295.418L213.708 256.445C213.25 253.646 210.608 251.749 207.809 252.21C205.08 252.66 203.198 255.189 203.552 257.932L208.602 297.101Z" fill="white"/>
<path d="M259.72 295.028C260.782 298.13 264.185 299.752 267.263 298.624C270.294 297.513 271.851 294.155 270.74 291.124L257.308 254.482C256.271 251.653 253.127 250.211 250.306 251.272C247.562 252.304 246.134 255.331 247.084 258.105L259.72 295.028Z" fill="white"/>
<path d="M116.666 295.028C115.605 298.13 112.201 299.752 109.123 298.624C106.092 297.513 104.536 294.155 105.647 291.124L119.078 254.482C120.115 251.653 123.259 250.211 126.08 251.272C128.824 252.304 130.252 255.331 129.302 258.105L116.666 295.028Z" fill="white"/>
<path d="M234.135 295.194C234.94 298.324 238.131 300.209 241.261 299.405C244.435 298.589 246.32 295.326 245.443 292.169L235 254.581C234.201 251.706 231.248 249.999 228.358 250.743C225.429 251.496 223.666 254.482 224.419 257.411L234.135 295.194Z" fill="white"/>
<path d="M190.124 253.87C190.124 254.886 189.3 255.712 188.282 255.712C187.264 255.712 186.438 254.886 186.438 253.87C186.438 252.85 187.264 252.026 188.282 252.026C189.3 252.026 190.124 252.85 190.124 253.87Z" fill="#FFD3D2"/>
<path d="M280.927 396.124H95.6351C89.7925 396.124 85.0568 391.389 85.0568 385.546V380.737H291.507V385.546C291.507 391.389 286.77 396.124 280.927 396.124Z" fill="#262626"/>
<path d="M164.011 377.971L170.877 371.614H206.494L212.552 377.971H164.011Z" fill="#262626"/>
<path d="M152.644 363.547C152.644 364.563 151.818 365.389 150.801 365.389H129.91C128.893 365.389 128.067 364.563 128.067 363.547C128.067 362.527 128.893 361.703 129.91 361.703H150.801C151.818 361.703 152.644 362.527 152.644 363.547Z" fill="#262626"/>
<path d="M251.568 363.547C251.568 364.563 250.744 365.389 249.725 365.389H228.834C227.816 365.389 226.99 364.563 226.99 363.547C226.99 362.527 227.816 361.703 228.834 361.703H249.725C250.744 361.703 251.568 362.527 251.568 363.547Z" fill="#262626"/>
<path d="M194.426 367.709H182.911V368.323H194.426V367.709Z" fill="#262626"/>
<path d="M111.784 375.967H98.8811V376.582H111.784V375.967Z" fill="#262626"/>
<path d="M121.308 367.709H109.792V368.323H121.308V367.709Z" fill="#262626"/>
<path d="M116.393 371.475H104.877V372.091H116.393V371.475Z" fill="#262626"/>
<path d="M143.735 367.709H132.22V368.323H143.735V367.709Z" fill="#262626"/>
<path d="M137.899 371.475H126.383V372.091H137.899V371.475Z" fill="#262626"/>
<path d="M153.258 375.967H140.356V376.582H153.258V375.967Z" fill="#262626"/>
<path d="M165.548 367.709H154.031V368.323H165.548V367.709Z" fill="#262626"/>
<path d="M159.71 371.475H148.195V372.091H159.71V371.475Z" fill="#262626"/>
<path d="M132.675 376.89H119.772V377.505H132.675V376.89Z" fill="#262626"/>
<path d="M279.832 375.967H266.929V376.582H279.832V375.967Z" fill="#262626"/>
<path d="M268.92 367.709H257.406V368.323H268.92V367.709Z" fill="#262626"/>
<path d="M273.836 371.475H262.322V372.091H273.836V371.475Z" fill="#262626"/>
<path d="M246.494 367.709H234.978V368.323H246.494V367.709Z" fill="#262626"/>
<path d="M252.33 371.475H240.816V372.091H252.33V371.475Z" fill="#262626"/>
<path d="M238.358 375.967H225.455V376.582H238.358V375.967Z" fill="#262626"/>
<path d="M224.681 367.709H213.167V368.323H224.681V367.709Z" fill="#262626"/>
<path d="M230.519 371.475H219.004V372.091H230.519V371.475Z" fill="#262626"/>
<path d="M258.941 376.89H246.038V377.505H258.941V376.89Z" fill="#262626"/>
<path d="M194.895 325.998H192.127C191.764 325.998 191.472 325.704 191.472 325.338V310.537C191.472 310.173 191.765 309.878 192.127 309.878H194.895C195.258 309.878 195.551 310.173 195.551 310.537V325.338C195.551 325.703 195.258 325.998 194.895 325.998Z" fill="#404041"/>
<path d="M184.774 325.998H182.006C181.644 325.998 181.351 325.704 181.351 325.338V310.537C181.351 310.173 181.644 309.878 182.006 309.878H184.774C185.137 309.878 185.43 310.173 185.43 310.537V325.338C185.43 325.703 185.137 325.998 184.774 325.998Z" fill="#404041"/>
<path d="M277.8 198C268.512 198 261 205.512 261 214.8C261 227.4 277.8 246 277.8 246C277.8 246 294.6 227.4 294.6 214.8C294.6 205.512 287.088 198 277.8 198ZM277.8 220.8C274.488 220.8 271.8 218.112 271.8 214.8C271.8 211.488 274.488 208.8 277.8 208.8C281.112 208.8 283.8 211.488 283.8 214.8C283.8 218.112 281.112 220.8 277.8 220.8Z" fill="#ED1C23"/>
<path d="M73.4 322C68.756 322 65 325.756 65 330.4C65 336.7 73.4 346 73.4 346C73.4 346 81.8 336.7 81.8 330.4C81.8 325.756 78.044 322 73.4 322ZM73.4 333.4C71.744 333.4 70.4 332.056 70.4 330.4C70.4 328.744 71.744 327.4 73.4 327.4C75.056 327.4 76.4 328.744 76.4 330.4C76.4 332.056 75.056 333.4 73.4 333.4Z" fill="black"/>
<ellipse opacity="0.4" cx="187.5" cy="412.5" rx="77.5" ry="6.5" fill="black"/>
<path d="M172.916 141.49H167.401L169.658 120.06H186.661L186.211 124.346H174.723L174.193 129.401H183.229L182.779 133.687H173.736L172.916 141.49Z" fill="#ED1C24"/>
<path d="M192.481 137.204L194.281 120.06H188.766L186.509 141.49H201.538L203.476 137.204H192.481Z" fill="#ED1C24"/>
<path d="M219.718 120.06H213.585L203.215 141.49H209.187L210.965 137.661L212.765 133.687L215.973 126.493L217.664 133.687H214.565L212.765 137.661H218.622L219.594 141.49H225.567L219.718 120.06Z" fill="#ED1C24"/>
<path d="M245.197 130.039C244.356 129.104 242.933 128.632 240.93 128.632H235.415C234.188 128.632 233.637 128.016 233.767 126.798L233.833 126.181C233.963 124.955 234.638 124.346 235.865 124.346H245.285L247.89 120.06H235.095C232.947 120.06 231.344 120.546 230.269 121.518C229.195 122.49 228.549 124.042 228.325 126.188L228.223 127.109C227.998 129.249 228.325 130.808 229.188 131.78C230.059 132.752 231.561 133.237 233.702 133.237H240.749L240.458 135.993C240.415 136.465 240.234 136.834 239.929 137.11C239.624 137.386 239.232 137.531 238.76 137.531C237.033 137.531 234.029 137.647 229.595 137.465L227.149 141.505C229.747 141.556 230.574 141.599 233.434 141.628L236.242 141.657C237.403 141.701 238.506 141.708 239.544 141.708C241.54 141.708 243.064 141.345 244.102 140.403C245.139 139.467 245.763 138.002 245.974 135.993L246.134 134.463C246.351 132.447 246.032 130.975 245.197 130.039Z" fill="#ED1C24"/>
<path d="M266.33 141.49H260.815L261.729 132.766H254.073L253.159 141.49H247.643L249.9 120.06H255.416L254.53 128.48H262.186L263.065 120.06H268.58L266.33 141.49Z" fill="#ED1C24"/>
<path d="M181.929 153.253L178.083 159.041H174.839L172.205 153.261L171.254 162.282H167.089L168.794 146.088H173.192L176.922 154.646L182.452 146.088H186.85L185.144 162.282H180.979L181.929 153.253Z" fill="#404041"/>
<path d="M206.06 146.081H215.784C217.403 146.081 218.542 146.444 219.202 147.176C219.855 147.909 220.102 149.083 219.928 150.701L219.71 152.782C219.572 154.066 219.26 155.059 218.76 155.763C218.259 156.473 217.533 156.945 216.582 157.177L218.941 162.268H214.427L212.272 157.409H209.035L208.527 162.268H204.361L206.06 146.081ZM215.762 150.708C215.857 149.78 215.443 149.323 214.521 149.323H209.891L209.383 154.182H214.013C214.935 154.182 215.45 153.717 215.545 152.796L215.762 150.708Z" fill="#404041"/>
<path d="M225.197 162.275H221.031L222.737 146.081H226.902L226.234 152.441H227.287L232.599 146.081H236.997L230.589 154.066L235.27 162.275H230.872L226.946 155.683H225.893L225.197 162.275Z" fill="#404041"/>
<path d="M249.523 162.275H236.678L238.383 146.081H251.228L250.887 149.315H242.207L241.881 152.441H248.71L248.369 155.683H241.54L241.184 159.033H249.864L249.523 162.275Z" fill="#404041"/>
<path d="M259.763 162.275H255.597L256.961 149.323H252.099L252.44 146.088H266.33L265.989 149.323H261.127L259.763 162.275Z" fill="#404041"/>
<path d="M198.773 146.081H194.136L186.298 162.275H190.812L192.155 159.381L193.519 156.379L195.943 150.94L197.22 156.379H194.876L193.512 159.381H197.939L198.679 162.275H203.193L198.773 146.081Z" fill="#404041"/>
<path d="M133.365 152.173L125.382 160.15C122.573 153.406 118.458 142.179 115.686 135.486L117.595 117.232C118.843 117.602 119.837 118.487 120.323 119.72L120.636 120.503L123.11 126.732L123.894 128.712L126.376 134.978L126.673 135.732C126.898 136.349 133.365 152.173 133.365 152.173Z" fill="url(#paint0_linear)" stroke="#252526" stroke-width="0.25" stroke-miterlimit="10"/>
<path d="M148.445 120.757L146.166 142.491L143.031 147.662L135.723 159.715L134.845 161.144L134.468 161.76H134.475L134.279 162.087C133.51 163.348 132.153 164.132 130.737 164.132H129.33C127.914 164.132 126.717 163.341 126.216 162.079L125.955 161.427L125.578 160.469L125.106 159.251L131.695 148.387L136.746 140.055L139.816 134.985L143.597 128.749L146.261 124.354L148.126 121.279L148.336 120.931L148.445 120.757Z" fill="url(#paint1_linear)" stroke="#303131" stroke-width="0.4" stroke-miterlimit="10"/>
<path d="M154.853 117.015C156.9 117.015 158.395 118.683 158.177 120.728L154.018 160.397C153.801 162.442 151.965 164.11 149.911 164.11H147.589C145.542 164.11 144.047 162.442 144.258 160.397L147.857 121.714L149.098 119.633L150.68 117.015H154.853Z" fill="#404041" stroke="#303131" stroke-width="0.4" stroke-miterlimit="10"/>
<path d="M118.335 145.465L116.767 160.426C116.55 162.471 114.706 164.139 112.66 164.139H110.345C108.298 164.139 106.803 162.471 107.021 160.426L108.211 149.062C108.422 147.075 110.207 145.465 112.195 145.465H118.335Z" fill="#ED1C24" stroke="#D52229" stroke-width="0.1" stroke-miterlimit="10"/>
<path d="M136.434 135.747L130.991 144.725L130.542 145.465H112.195C110.207 145.465 108.422 147.075 108.211 149.062L109.227 139.344C109.438 137.357 111.223 135.747 113.211 135.747H136.434Z" fill="#ED1C24" stroke="#D52229" stroke-width="0.1" stroke-miterlimit="10"/>
<path d="M120.302 126.74L119.358 135.74H113.211C111.223 135.74 109.438 137.35 109.227 139.337L110.171 130.337C110.381 128.35 112.166 126.74 114.155 126.74H120.302Z" fill="#ED1C24" stroke="#D52229" stroke-width="0.1" stroke-miterlimit="10"/>
<path d="M147.785 117.015L147.001 118.32L146.964 118.378L146.899 118.487L146.885 118.501L146.877 118.516L145.941 120.06L144.083 123.128L141.877 126.769L125.469 126.747H123.313H114.155C112.166 126.747 110.381 128.357 110.171 130.344L111.179 120.735C111.383 118.777 113.074 117.167 115.018 117.029H117L117.014 117.015H147.785Z" fill="#ED1C24" stroke="#D52229" stroke-width="0.1" stroke-miterlimit="10"/>
<path d="M118.342 145.45L116.775 160.411C116.557 162.456 114.714 164.124 112.667 164.124H110.345C108.298 164.124 106.803 162.456 107.021 160.411L108.211 149.047C108.422 147.06 110.207 145.45 112.195 145.45H118.342Z" fill="url(#paint2_linear)"/>
<path d="M136.434 135.732L130.991 144.71L130.542 145.45H112.195C110.207 145.45 108.422 147.06 108.211 149.047L109.227 139.329C109.438 137.342 111.223 135.732 113.211 135.732H136.434Z" fill="url(#paint3_linear)"/>
<path d="M120.302 126.732L119.358 135.732H113.219C111.23 135.732 109.445 137.342 109.234 139.329L110.178 130.329C110.388 128.342 112.174 126.732 114.162 126.732H120.302Z" fill="url(#paint4_linear)"/>
<path d="M147.792 117L147.008 118.305L146.972 118.363L146.906 118.472L146.892 118.487L146.877 118.508L145.941 120.053L144.083 123.121L141.877 126.761L125.469 126.732H123.313H114.162C112.174 126.732 110.388 128.342 110.178 130.329L111.187 120.72C111.39 118.762 113.081 117.152 115.018 117.015H117L117.014 117H147.792Z" fill="url(#paint5_linear)"/>
<defs>
<linearGradient id="paint0_linear" x1="136.566" y1="138.693" x2="122.362" y2="137.204" gradientUnits="userSpaceOnUse">
<stop stop-color="#231F20"/>
<stop offset="1" stop-color="#404041"/>
</linearGradient>
<linearGradient id="paint1_linear" x1="148.282" y1="142.447" x2="136.435" y2="141.205" gradientUnits="userSpaceOnUse">
<stop stop-color="#231F20"/>
<stop offset="1" stop-color="#404041"/>
</linearGradient>
<linearGradient id="paint2_linear" x1="115.591" y1="125.184" x2="115.591" y2="163.908" gradientUnits="userSpaceOnUse">
<stop stop-color="#B11117"/>
<stop offset="1" stop-color="#B11117" stop-opacity="0"/>
</linearGradient>
<linearGradient id="paint3_linear" x1="147.651" y1="142.389" x2="111.09" y2="138.555" gradientUnits="userSpaceOnUse">
<stop stop-color="#B11117"/>
<stop offset="1" stop-color="#B11117" stop-opacity="0"/>
</linearGradient>
<linearGradient id="paint4_linear" x1="106.301" y1="133.029" x2="122.12" y2="134.688" gradientUnits="userSpaceOnUse">
<stop stop-color="#B11117"/>
<stop offset="1" stop-color="#B11117" stop-opacity="0"/>
</linearGradient>
<linearGradient id="paint5_linear" x1="168.428" y1="123.665" x2="118.181" y2="118.395" gradientUnits="userSpaceOnUse">
<stop stop-color="#B11117"/>
<stop offset="1" stop-color="#B11117" stop-opacity="0"/>
</linearGradient>
</defs>
</svg>
