<svg width="375" height="812" viewBox="0 0 375 812" fill="none" xmlns="http://www.w3.org/2000/svg">
<rect width="376" height="812" fill="white"/>
<path d="M376 209L-1 371.667V812H376V209Z" fill="#ED1C23"/>
<path d="M259.861 389.426H108.762L116.582 284.123C116.886 280.013 120.314 276.833 124.438 276.833H239.787C246.432 276.833 251.952 281.957 252.439 288.579L259.861 389.426Z" fill="#262626"/>
<path d="M253.176 389.426H115.447L118.491 284.478C118.615 280.221 122.103 276.833 126.366 276.833H237.587C244.451 276.833 250.068 282.287 250.268 289.141L253.176 389.426Z" fill="#404041"/>
<path d="M205.556 284.899H160.651V265.835C160.651 253.635 170.583 243.711 182.793 243.711C194.989 243.711 204.915 253.616 204.935 265.797L205.556 284.899ZM165.133 280.42H200.925L200.451 265.835C200.451 256.106 192.53 248.19 182.793 248.19C173.056 248.19 165.133 256.106 165.133 265.835V280.42Z" fill="#404041"/>
<path d="M223.775 337.342C223.775 359.605 205.711 377.655 183.428 377.655C161.145 377.655 143.082 359.605 143.082 337.342C143.082 315.077 161.145 297.027 183.428 297.027C205.712 297.027 223.775 315.077 223.775 337.342Z" fill="white"/>
<path d="M176.799 220.683C176.799 224.927 173.355 228.367 169.109 228.367C164.86 228.367 161.418 224.927 161.418 220.683C161.418 216.438 164.86 212.998 169.109 212.998C173.356 212.998 176.799 216.438 176.799 220.683Z" fill="#ED1B23"/>
<path d="M174.035 223.199C173.841 222.903 173.536 222.695 173.189 222.623L172.399 222.458C172.418 222.1 172.373 221.73 172.254 221.366C172.172 221.112 172.06 220.877 171.924 220.662L172.197 220.484C172.415 220.342 172.568 220.119 172.621 219.864C172.674 219.609 172.625 219.344 172.483 219.125C172.186 218.671 171.577 218.544 171.122 218.84L170.384 219.321C170.821 218.727 170.982 217.979 170.753 217.271C170.749 217.259 170.745 217.246 170.741 217.234C171.245 216.88 171.485 216.226 171.286 215.61C171.041 214.854 170.227 214.437 169.469 214.682C168.981 214.84 168.635 215.235 168.516 215.698C168.197 215.688 167.867 215.731 167.541 215.837C167.214 215.943 166.921 216.1 166.668 216.295C166.3 215.989 165.788 215.871 165.3 216.028C164.542 216.273 164.126 217.087 164.371 217.843C164.57 218.459 165.147 218.849 165.763 218.841C165.767 218.854 165.771 218.866 165.775 218.879C166.004 219.587 166.573 220.099 167.275 220.325L166.395 220.367C165.853 220.392 165.435 220.852 165.46 221.393C165.473 221.653 165.587 221.898 165.78 222.073C165.972 222.249 166.227 222.34 166.488 222.328L166.813 222.313C166.828 222.566 166.874 222.823 166.957 223.077C167.075 223.441 167.255 223.768 167.48 224.048L166.936 224.643C166.697 224.905 166.571 225.251 166.588 225.605C166.603 225.959 166.76 226.292 167.022 226.531C167.567 227.029 168.413 226.991 168.912 226.446L170.156 225.086C170.272 225.064 170.389 225.035 170.504 224.998C170.62 224.961 170.731 224.916 170.838 224.865L172.644 225.241C173.367 225.391 174.076 224.928 174.226 224.205C174.298 223.858 174.229 223.496 174.035 223.199ZM167.118 218.045C167.263 217.998 167.419 218.078 167.466 218.223C167.513 218.367 167.433 218.524 167.288 218.57C167.143 218.617 166.987 218.538 166.94 218.393C166.893 218.248 166.973 218.092 167.118 218.045ZM169.184 217.399C169.329 217.352 169.485 217.432 169.532 217.577C169.579 217.722 169.499 217.878 169.354 217.925C169.208 217.972 169.053 217.892 169.006 217.747C168.959 217.602 169.038 217.446 169.184 217.399ZM170.053 223.977C169.657 223.776 168.583 223.23 168.561 223.218C168.108 222.986 167.928 222.431 168.16 221.979C168.392 221.526 168.945 221.347 169.397 221.576C169.63 221.126 170.184 220.948 170.637 221.179C171.09 221.411 171.269 221.966 171.038 222.419C171.026 222.441 170.475 223.512 170.272 223.906C170.23 223.985 170.133 224.017 170.053 223.977ZM169.694 215.374C170.068 215.253 170.472 215.459 170.593 215.833C170.683 216.112 170.591 216.406 170.385 216.588C170.096 216.228 169.695 215.964 169.239 215.82C169.31 215.616 169.472 215.446 169.694 215.374ZM168.326 218.264C168.783 218.116 169.262 218.33 169.395 218.741C169.528 219.153 169.265 219.606 168.808 219.753C168.351 219.901 167.872 219.688 167.739 219.276C167.606 218.865 167.869 218.412 168.326 218.264ZM165.064 217.619C164.943 217.244 165.15 216.841 165.525 216.721C165.746 216.649 165.977 216.692 166.155 216.816C165.869 217.2 165.699 217.648 165.675 218.109C165.401 218.082 165.155 217.897 165.064 217.619Z" fill="white"/>
<path d="M168.848 218.598C168.789 218.414 168.575 218.319 168.37 218.385C168.166 218.451 168.048 218.653 168.108 218.837C168.167 219.021 168.381 219.117 168.586 219.051C168.79 218.985 168.908 218.782 168.848 218.598Z" fill="white"/>
<path d="M148.454 272.786C153.472 272.786 157.54 268.721 157.54 263.707C157.54 258.693 153.472 254.628 148.454 254.628C143.435 254.628 139.367 258.693 139.367 263.707C139.367 268.721 143.435 272.786 148.454 272.786Z" fill="#ED1B23"/>
<path d="M152.943 259.63C150.546 257.322 148.528 259.896 148.528 259.896C148.397 260.062 148.122 260.243 147.918 260.298L147.242 260.476C147.037 260.53 146.709 260.507 146.514 260.426C146.514 260.426 143.489 259.177 142.538 262.365C141.587 265.551 143.049 268.365 143.049 268.365C143.36 269.067 143.878 269.453 144.597 269.198C145.313 268.945 146.401 266.615 146.401 266.615C146.491 266.423 146.732 266.222 146.937 266.169L150.985 265.104C151.19 265.05 151.499 265.107 151.671 265.23C151.671 265.23 153.765 266.723 154.515 266.591C155.265 266.46 155.527 265.868 155.452 265.105C155.451 265.105 155.34 261.937 152.943 259.63ZM146.807 263.633L145.939 263.861L146.159 264.697C146.159 264.697 146.012 264.886 145.727 264.957C145.441 265.028 145.274 264.913 145.274 264.913L145.058 264.093L144.238 264.309C144.238 264.309 144.108 264.231 144.008 263.962C143.908 263.693 143.99 263.433 143.99 263.433L144.858 263.205L144.63 262.337C144.63 262.337 144.784 262.195 145.042 262.135C145.301 262.075 145.515 262.122 145.515 262.122L145.736 262.974L146.556 262.758C146.556 262.758 146.747 262.904 146.817 263.124C146.887 263.343 146.807 263.633 146.807 263.633ZM151.04 263.54C150.66 263.64 150.273 263.413 150.173 263.033C150.073 262.653 150.299 262.266 150.679 262.166C151.057 262.067 151.447 262.292 151.547 262.672C151.647 263.052 151.419 263.44 151.04 263.54ZM150.543 261.651C150.163 261.751 149.775 261.524 149.676 261.145C149.576 260.765 149.801 260.378 150.182 260.278C150.56 260.178 150.95 260.403 151.05 260.784C151.15 261.163 150.921 261.551 150.543 261.651ZM152.521 262.215C152.141 262.315 151.754 262.088 151.654 261.709C151.554 261.329 151.78 260.941 152.16 260.841C152.538 260.742 152.928 260.967 153.028 261.348C153.128 261.727 152.9 262.116 152.521 262.215Z" fill="white"/>
<path d="M194.295 262.628C194.295 268.768 189.315 273.746 183.169 273.746C177.023 273.746 172.041 268.768 172.041 262.628C172.041 256.487 177.023 251.509 183.169 251.509C189.315 251.509 194.295 256.487 194.295 262.628Z" fill="#ED1B23"/>
<path d="M181.814 254.66C177.385 255.55 174.517 259.86 175.408 264.286C176.299 268.712 180.613 271.578 185.043 270.688C189.472 269.797 192.341 265.487 191.449 261.061C190.553 256.638 186.243 253.774 181.814 254.66ZM182.566 256.913L185.13 255.238C185.475 255.318 185.815 255.421 186.146 255.547L186.154 255.551C186.479 255.675 186.795 255.822 187.101 255.989L187.127 256.004C187.265 256.081 187.399 256.161 187.531 256.245C187.548 256.256 187.565 256.266 187.582 256.277C187.721 256.367 187.857 256.461 187.99 256.559C188.001 256.568 188.012 256.577 188.023 256.585C188.139 256.673 188.254 256.765 188.365 256.86C188.392 256.882 188.419 256.905 188.445 256.927C188.567 257.033 188.686 257.141 188.801 257.254L188.72 259.727L186.169 261.188L183.11 259.611L182.566 256.913ZM176.578 259.314C176.593 259.284 176.609 259.253 176.625 259.222C176.69 259.093 176.759 258.965 176.832 258.841C176.84 258.827 176.847 258.814 176.855 258.801C176.938 258.658 177.027 258.519 177.12 258.383C177.131 258.367 177.141 258.351 177.153 258.336C177.241 258.209 177.334 258.083 177.43 257.961L177.452 257.933C177.667 257.662 177.899 257.407 178.148 257.167L178.158 257.158C178.412 256.915 178.683 256.689 178.969 256.483L181.993 257.027L182.537 259.726L180.326 262.361L177.409 262.002L176.377 259.752C176.44 259.604 176.507 259.458 176.578 259.314ZM177.998 268.031C177.895 267.927 177.796 267.82 177.699 267.71L177.675 267.684C177.579 267.574 177.486 267.462 177.397 267.347L177.394 267.344C177.206 267.102 177.033 266.849 176.876 266.586L176.875 266.584C176.8 266.46 176.73 266.332 176.662 266.202L176.637 266.154C176.574 266.032 176.515 265.908 176.458 265.782C176.453 265.77 176.448 265.758 176.442 265.746C176.317 265.461 176.208 265.168 176.119 264.87L177.357 262.584L180.255 262.943L181.677 265.934L180.729 267.916L177.998 268.031ZM186.672 269.58C186.545 269.64 186.413 269.696 186.281 269.749C186.263 269.757 186.244 269.764 186.226 269.771C186.113 269.816 185.998 269.857 185.883 269.896C185.852 269.906 185.822 269.917 185.791 269.927C185.684 269.962 185.575 269.994 185.465 270.024C185.43 270.034 185.397 270.044 185.362 270.053C185.222 270.09 185.079 270.125 184.935 270.154C184.802 270.18 184.67 270.203 184.538 270.222C184.522 270.226 184.507 270.226 184.491 270.228C184.373 270.245 184.255 270.259 184.138 270.271L184.124 270.271C183.865 270.295 183.606 270.305 183.346 270.303L181.266 268.147L182.199 266.192L185.924 265.443L187.564 266.892L186.672 269.58ZM191.063 262.807C191.062 262.82 191.062 262.833 191.062 262.846C191.058 262.984 191.051 263.122 191.041 263.258L191.037 263.312C191.024 263.457 191.008 263.603 190.988 263.746L190.988 263.749C190.945 264.052 190.883 264.352 190.803 264.648L190.801 264.652C190.763 264.793 190.721 264.933 190.675 265.07L190.664 265.103C190.617 265.243 190.567 265.379 190.512 265.514L187.958 266.461L186.307 265.002L186.461 261.695L188.995 260.244L191.021 261.873C191.054 262.183 191.068 262.495 191.063 262.807Z" fill="white"/>
<path d="M212.447 243.016C212.447 247.467 208.835 251.075 204.381 251.075C199.927 251.075 196.316 247.467 196.316 243.016C196.316 238.565 199.927 234.957 204.381 234.957C208.835 234.957 212.447 238.565 212.447 243.016Z" fill="#ED1B23"/>
<path d="M205.301 238.553H203.461V247.479H205.301V238.553Z" fill="white"/>
<path d="M208.848 242.097H199.914V243.935H208.848V242.097Z" fill="white"/>
<path d="M187.557 215.318C187.557 217.441 185.835 219.162 183.71 219.162C181.585 219.162 179.862 217.441 179.862 215.318C179.862 213.195 181.585 211.473 183.71 211.473C185.835 211.473 187.557 213.195 187.557 215.318Z" fill="#FF4F4F"/>
<path d="M184.148 213.189H183.272V217.446H184.148V213.189Z" fill="white"/>
<path d="M185.841 214.879H181.58V215.756H185.841V214.879Z" fill="white"/>
<path d="M223.906 248.977C227.584 248.977 230.565 245.998 230.565 242.323C230.565 238.649 227.584 235.67 223.906 235.67C220.228 235.67 217.247 238.649 217.247 242.323C217.247 245.998 220.228 248.977 223.906 248.977Z" fill="#ED1B23"/>
<path d="M227.613 245.74H220.366C219.816 245.74 219.369 245.294 219.369 244.744V240.114C219.369 239.564 219.816 239.119 220.366 239.119H227.613C228.163 239.119 228.609 239.564 228.609 240.114V244.744C228.609 245.294 228.164 245.74 227.613 245.74ZM221.363 243.748H226.617V241.109H221.363V243.748Z" fill="white"/>
<path d="M224.081 243.339C224.649 243.339 225.111 242.878 225.111 242.31C225.111 241.742 224.649 241.281 224.081 241.281C223.512 241.281 223.051 241.742 223.051 242.31C223.051 242.878 223.512 243.339 224.081 243.339Z" fill="white"/>
<path d="M225.942 241.081C225.254 241.081 224.696 240.524 224.696 239.837V239.283C224.696 238.595 225.254 238.038 225.942 238.038C226.629 238.038 227.187 238.595 227.187 239.283V239.837C227.187 240.524 226.629 241.081 225.942 241.081Z" fill="white"/>
<path d="M195.38 231.599C195.38 236.944 191.044 241.278 185.692 241.278C180.342 241.278 176.006 236.944 176.006 231.599C176.006 226.253 180.342 221.919 185.692 221.919C191.044 221.919 195.38 226.253 195.38 231.599Z" fill="#ED1B23"/>
<path d="M197.031 223.061C200.414 223.061 203.157 220.32 203.157 216.939C203.157 213.559 200.414 210.818 197.031 210.818C193.647 210.818 190.904 213.559 190.904 216.939C190.904 220.32 193.647 223.061 197.031 223.061Z" fill="#ED1B23"/>
<path d="M200.009 214.215C200.306 214.314 200.507 214.934 200.285 215.929C200.064 216.923 199.733 219.189 199.733 219.189H198.903C198.903 219.189 199.29 216.757 198.516 216.536C197.742 216.315 197.244 219.189 195.474 219.189C193.703 219.189 192.598 219.244 192.542 218.747C192.487 218.25 194.92 217.808 195.917 216.536C197.387 214.659 199.511 214.05 200.009 214.215Z" fill="white"/>
<path d="M155.316 252.838C162.702 252.838 168.689 246.856 168.689 239.477C168.689 232.098 162.702 226.116 155.316 226.116C147.931 226.116 141.944 232.098 141.944 239.477C141.944 246.856 147.931 252.838 155.316 252.838Z" fill="#ED1B23"/>
<path d="M163.228 234.708C163.195 234.616 163.128 234.541 163.039 234.5L160.015 233.105C159.372 232.887 158.716 232.715 158.054 232.589C158.031 232.585 158.008 232.583 157.985 232.583C157.821 232.583 157.674 232.696 157.638 232.861C157.397 233.924 156.454 234.72 155.317 234.72C154.179 234.72 153.237 233.924 152.995 232.861C152.958 232.696 152.812 232.583 152.648 232.583C152.625 232.583 152.602 232.585 152.579 232.589C151.917 232.715 151.262 232.887 150.617 233.105L147.594 234.5C147.505 234.541 147.436 234.616 147.406 234.707C147.373 234.8 147.379 234.9 147.425 234.987L148.738 237.576C148.799 237.699 148.924 237.773 149.056 237.773C149.09 237.773 149.125 237.768 149.159 237.758L150.617 237.326V246.013C150.617 246.21 150.779 246.371 150.976 246.371H159.657C159.854 246.371 160.015 246.21 160.015 246.013V237.326L161.474 237.758C161.508 237.768 161.543 237.773 161.577 237.773C161.709 237.773 161.834 237.699 161.896 237.577L163.21 234.988C163.253 234.9 163.259 234.8 163.228 234.708Z" fill="white"/>
<path d="M222.917 225.76C222.996 230.704 219.048 234.777 214.101 234.856C209.152 234.935 205.076 230.991 204.997 226.046C204.917 221.102 208.865 217.029 213.813 216.95C218.762 216.871 222.838 220.815 222.917 225.76Z" fill="#ED1B23"/>
<path d="M173.677 242.613C175.087 242.613 176.229 241.472 176.229 240.063C176.229 238.655 175.087 237.514 173.677 237.514C172.268 237.514 171.126 238.655 171.126 240.063C171.126 241.472 172.268 242.613 173.677 242.613Z" fill="#404041"/>
<path d="M157.177 223.306C158.211 223.306 159.048 222.469 159.048 221.436C159.048 220.404 158.211 219.567 157.177 219.567C156.144 219.567 155.307 220.404 155.307 221.436C155.307 222.469 156.144 223.306 157.177 223.306Z" fill="#404041"/>
<path d="M144.275 251.621C144.275 252.911 143.228 253.958 141.937 253.958C140.645 253.958 139.597 252.911 139.597 251.621C139.597 250.33 140.645 249.284 141.937 249.284C143.228 249.284 144.275 250.33 144.275 251.621Z" fill="#404041"/>
<path d="M199.999 232.784C201.427 232.784 202.584 231.627 202.584 230.2C202.584 228.773 201.427 227.617 199.999 227.617C198.571 227.617 197.413 228.773 197.413 230.2C197.413 231.627 198.571 232.784 199.999 232.784Z" fill="#404041"/>
<path d="M229.006 262.584C229.006 268.761 223.996 273.768 217.812 273.768C211.632 273.768 206.62 268.761 206.62 262.584C206.62 256.408 211.632 251.401 217.812 251.401C223.996 251.4 229.006 256.408 229.006 262.584Z" fill="#ED1B23"/>
<path d="M223.682 263.686C223.953 261.844 223.336 260.04 222.123 258.751V255.326L217.503 254.172L215.889 257.196C214.034 257.824 212.527 259.346 212.016 261.385C211.506 263.424 212.12 265.476 213.46 266.902L213.46 270.33L218.08 271.484L219.693 268.462C221.37 267.895 222.765 266.594 223.393 264.841L224.577 265.136L224.866 263.982L223.682 263.686ZM216.636 267.444C214.089 266.808 212.534 264.219 213.171 261.674C213.809 259.128 216.399 257.575 218.947 258.211C221.494 258.847 223.049 261.436 222.412 263.982C221.775 266.528 219.184 268.081 216.636 267.444Z" fill="white"/>
<path d="M218.358 263.017L219.091 260.087L217.936 259.798L217.114 263.083L218.046 265.549L219.153 265.133L218.358 263.017Z" fill="white"/>
<path d="M184.205 349.113L176.106 357.206C173.256 350.364 169.081 338.975 166.268 332.184L168.205 313.666C169.471 314.041 170.48 314.939 170.974 316.19L171.29 316.984L173.801 323.304L174.596 325.312L177.114 331.669L177.416 332.434C177.645 333.06 184.205 349.113 184.205 349.113Z" fill="url(#paint0_linear)" stroke="#252526" stroke-width="0.25" stroke-miterlimit="10"/>
<path d="M199.507 317.241L197.194 339.291L194.013 344.537L186.598 356.765L185.708 358.214L185.325 358.84H185.332L185.133 359.171C184.353 360.451 182.975 361.245 181.54 361.245H180.111C178.675 361.245 177.46 360.443 176.952 359.163L176.688 358.501L176.305 357.53L175.826 356.294L182.512 345.272L187.637 336.819L190.751 331.676L194.588 325.349L197.29 320.89L199.182 317.771L199.396 317.418L199.507 317.241Z" fill="url(#paint1_linear)" stroke="#303131" stroke-width="0.4" stroke-miterlimit="10"/>
<path d="M206.008 313.445C208.085 313.445 209.602 315.137 209.381 317.212L205.161 357.456C204.94 359.531 203.077 361.223 200.994 361.223H198.637C196.561 361.223 195.044 359.531 195.258 357.456L198.91 318.212L200.169 316.101L201.774 313.445H206.008Z" fill="#404041" stroke="#303131" stroke-width="0.4" stroke-miterlimit="10"/>
<path d="M168.956 342.308L167.365 357.485C167.144 359.56 165.274 361.253 163.198 361.253H160.849C158.772 361.253 157.255 359.561 157.476 357.485L158.684 345.957C158.897 343.941 160.709 342.308 162.726 342.308H168.956V342.308Z" fill="#ED1C24" stroke="#D52229" stroke-width="0.1" stroke-miterlimit="10"/>
<path d="M187.32 332.449L181.798 341.557L181.341 342.307H162.727C160.709 342.307 158.898 343.941 158.684 345.957L159.715 336.098C159.929 334.082 161.74 332.449 163.757 332.449H187.32Z" fill="#ED1C24" stroke="#D52229" stroke-width="0.1" stroke-miterlimit="10"/>
<path d="M170.951 323.311L169.994 332.442H163.757C161.74 332.442 159.928 334.075 159.715 336.091L160.672 326.96C160.886 324.944 162.697 323.311 164.715 323.311H170.951Z" fill="#ED1C24" stroke="#D52229" stroke-width="0.1" stroke-miterlimit="10"/>
<path d="M198.836 313.445L198.041 314.769L198.004 314.828L197.938 314.938L197.923 314.953L197.916 314.968L196.966 316.535L195.081 319.647L192.843 323.341L176.194 323.319H174.008H164.715C162.697 323.319 160.886 324.952 160.673 326.968L161.696 317.219C161.902 315.232 163.618 313.6 165.591 313.46H167.601L167.616 313.445H198.836V313.445Z" fill="#ED1C24" stroke="#D52229" stroke-width="0.1" stroke-miterlimit="10"/>
<path d="M168.963 342.293L167.373 357.471C167.152 359.545 165.282 361.238 163.205 361.238H160.849C158.773 361.238 157.256 359.546 157.477 357.471L158.684 345.942C158.898 343.926 160.709 342.293 162.727 342.293H168.963V342.293Z" fill="url(#paint2_linear)"/>
<path d="M187.32 332.434L181.798 341.542L181.341 342.293H162.727C160.709 342.293 158.898 343.926 158.684 345.942L159.715 336.083C159.929 334.067 161.74 332.434 163.757 332.434H187.32Z" fill="url(#paint3_linear)"/>
<path d="M170.951 323.304L169.994 332.434H163.765C161.747 332.434 159.936 334.067 159.722 336.083L160.679 326.953C160.893 324.937 162.704 323.304 164.722 323.304H170.951Z" fill="url(#paint4_linear)"/>
<path d="M198.844 313.43L198.048 314.755L198.012 314.814L197.945 314.924L197.931 314.939L197.916 314.961L196.966 316.528L195.081 319.64L192.843 323.333L176.194 323.304H174.007H164.722C162.705 323.304 160.893 324.937 160.68 326.953L161.703 317.205C161.909 315.218 163.625 313.585 165.591 313.445H167.601L167.616 313.43H198.844Z" fill="url(#paint5_linear)"/>
<path d="M180.603 226.015C180.039 226.088 179.463 227.122 179.508 228.974C179.553 230.825 179.347 234.981 179.347 234.981L180.826 235.273C180.826 235.273 180.991 230.801 182.45 230.678C183.907 230.557 183.785 235.856 186.94 236.477C190.096 237.099 192.048 237.585 192.322 236.718C192.596 235.851 188.413 234.208 187.083 231.591C185.123 227.727 181.549 225.896 180.603 226.015Z" fill="white"/>
<path d="M208.855 228.734C208.465 229.124 208.465 229.756 208.855 230.146L210.124 231.413C210.515 231.803 211.147 231.803 211.537 231.413L215.632 227.322L212.942 224.65L208.855 228.734ZM213.559 227.088L212.639 228.008L212.264 227.633L213.184 226.714L213.559 227.088Z" fill="white"/>
<path d="M215.735 220.208C215.667 220.139 215.573 220.1 215.475 220.1C215.378 220.1 215.285 220.139 215.217 220.208L214.672 220.751C214.503 220.921 214.373 221.125 214.291 221.35L213.256 224.214L216.074 227.014L218.931 225.975C219.154 225.894 219.356 225.765 219.524 225.598L220.069 225.057C220.212 224.914 220.213 224.682 220.07 224.538L215.735 220.208Z" fill="white"/>
<path d="M220.54 224.531L220.348 224.668L215.602 219.866L215.782 219.713L220.54 224.531Z" fill="white"/>
<ellipse opacity="0.4" cx="182.5" cy="412.5" rx="77.5" ry="6.5" fill="black"/>
<path d="M172.916 141.49H167.401L169.658 120.06H186.661L186.211 124.346H174.723L174.193 129.401H183.229L182.779 133.687H173.736L172.916 141.49Z" fill="#ED1C24"/>
<path d="M192.481 137.204L194.281 120.06H188.766L186.509 141.49H201.538L203.476 137.204H192.481Z" fill="#ED1C24"/>
<path d="M219.718 120.06H213.585L203.215 141.49H209.187L210.965 137.661L212.765 133.687L215.973 126.493L217.664 133.687H214.565L212.765 137.661H218.622L219.594 141.49H225.567L219.718 120.06Z" fill="#ED1C24"/>
<path d="M245.197 130.039C244.356 129.104 242.933 128.632 240.93 128.632H235.415C234.188 128.632 233.637 128.016 233.767 126.798L233.833 126.181C233.963 124.955 234.638 124.346 235.865 124.346H245.284L247.89 120.06H235.095C232.947 120.06 231.343 120.546 230.269 121.518C229.195 122.49 228.549 124.042 228.325 126.188L228.223 127.109C227.998 129.249 228.325 130.808 229.188 131.78C230.059 132.752 231.561 133.237 233.702 133.237H240.749L240.458 135.993C240.415 136.465 240.234 136.834 239.929 137.11C239.624 137.386 239.232 137.531 238.76 137.531C237.033 137.531 234.029 137.647 229.595 137.465L227.149 141.505C229.747 141.556 230.574 141.599 233.434 141.628L236.242 141.657C237.403 141.701 238.506 141.708 239.544 141.708C241.54 141.708 243.064 141.345 244.102 140.403C245.139 139.467 245.763 138.002 245.974 135.993L246.134 134.463C246.351 132.447 246.032 130.975 245.197 130.039Z" fill="#ED1C24"/>
<path d="M266.33 141.49H260.815L261.729 132.766H254.073L253.159 141.49H247.643L249.9 120.06H255.416L254.53 128.48H262.186L263.065 120.06H268.58L266.33 141.49Z" fill="#ED1C24"/>
<path d="M181.93 153.253L178.083 159.041H174.839L172.205 153.261L171.254 162.282H167.089L168.794 146.088H173.192L176.922 154.646L182.452 146.088H186.85L185.144 162.282H180.979L181.93 153.253Z" fill="#404041"/>
<path d="M206.06 146.081H215.784C217.403 146.081 218.542 146.444 219.202 147.176C219.855 147.909 220.102 149.083 219.928 150.701L219.71 152.782C219.572 154.066 219.26 155.059 218.76 155.763C218.259 156.473 217.533 156.945 216.582 157.177L218.941 162.268H214.427L212.272 157.409H209.035L208.527 162.268H204.361L206.06 146.081ZM215.762 150.708C215.857 149.78 215.443 149.323 214.521 149.323H209.891L209.383 154.182H214.013C214.935 154.182 215.45 153.717 215.545 152.796L215.762 150.708Z" fill="#404041"/>
<path d="M225.197 162.275H221.031L222.736 146.081H226.902L226.234 152.441H227.287L232.599 146.081H236.997L230.589 154.066L235.27 162.275H230.872L226.946 155.683H225.893L225.197 162.275Z" fill="#404041"/>
<path d="M249.523 162.275H236.678L238.383 146.081H251.228L250.887 149.315H242.207L241.881 152.441H248.71L248.369 155.683H241.54L241.184 159.033H249.864L249.523 162.275Z" fill="#404041"/>
<path d="M259.763 162.275H255.597L256.961 149.323H252.099L252.44 146.088H266.33L265.989 149.323H261.127L259.763 162.275Z" fill="#404041"/>
<path d="M198.773 146.081H194.136L186.298 162.275H190.812L192.155 159.381L193.519 156.379L195.943 150.94L197.22 156.379H194.876L193.512 159.381H197.939L198.679 162.275H203.193L198.773 146.081Z" fill="#404041"/>
<path d="M133.365 152.173L125.382 160.15C122.573 153.406 118.458 142.179 115.686 135.486L117.595 117.232C118.843 117.602 119.837 118.487 120.323 119.72L120.636 120.503L123.11 126.732L123.894 128.712L126.376 134.978L126.673 135.732C126.898 136.349 133.365 152.173 133.365 152.173Z" fill="url(#paint6_linear)" stroke="#252526" stroke-width="0.25" stroke-miterlimit="10"/>
<path d="M148.445 120.757L146.166 142.491L143.031 147.662L135.723 159.715L134.845 161.144L134.468 161.76H134.475L134.279 162.087C133.51 163.348 132.153 164.132 130.737 164.132H129.33C127.914 164.132 126.717 163.341 126.216 162.079L125.955 161.427L125.578 160.469L125.106 159.251L131.695 148.387L136.746 140.055L139.816 134.985L143.597 128.749L146.261 124.354L148.126 121.279L148.336 120.931L148.445 120.757Z" fill="url(#paint7_linear)" stroke="#303131" stroke-width="0.4" stroke-miterlimit="10"/>
<path d="M154.853 117.015C156.9 117.015 158.395 118.683 158.177 120.728L154.018 160.397C153.801 162.442 151.965 164.11 149.911 164.11H147.589C145.542 164.11 144.047 162.442 144.258 160.397L147.857 121.714L149.098 119.633L150.68 117.015H154.853Z" fill="#404041" stroke="#303131" stroke-width="0.4" stroke-miterlimit="10"/>
<path d="M118.335 145.465L116.767 160.426C116.55 162.471 114.706 164.139 112.66 164.139H110.345C108.298 164.139 106.803 162.471 107.021 160.426L108.211 149.062C108.422 147.075 110.207 145.465 112.195 145.465H118.335Z" fill="#ED1C24" stroke="#D52229" stroke-width="0.1" stroke-miterlimit="10"/>
<path d="M136.434 135.747L130.991 144.725L130.542 145.465H112.195C110.207 145.465 108.422 147.075 108.211 149.062L109.227 139.344C109.438 137.357 111.223 135.747 113.211 135.747H136.434Z" fill="#ED1C24" stroke="#D52229" stroke-width="0.1" stroke-miterlimit="10"/>
<path d="M120.302 126.74L119.358 135.74H113.211C111.223 135.74 109.438 137.35 109.227 139.337L110.171 130.337C110.381 128.35 112.166 126.74 114.155 126.74H120.302Z" fill="#ED1C24" stroke="#D52229" stroke-width="0.1" stroke-miterlimit="10"/>
<path d="M147.785 117.015L147.001 118.32L146.964 118.378L146.899 118.487L146.885 118.501L146.877 118.516L145.941 120.06L144.083 123.128L141.877 126.769L125.469 126.747H123.313H114.155C112.166 126.747 110.381 128.357 110.171 130.344L111.179 120.735C111.383 118.777 113.074 117.167 115.018 117.029H117L117.014 117.015H147.785Z" fill="#ED1C24" stroke="#D52229" stroke-width="0.1" stroke-miterlimit="10"/>
<path d="M118.342 145.45L116.775 160.411C116.557 162.456 114.714 164.124 112.667 164.124H110.345C108.298 164.124 106.803 162.456 107.021 160.411L108.211 149.047C108.422 147.06 110.207 145.45 112.195 145.45H118.342Z" fill="url(#paint8_linear)"/>
<path d="M136.434 135.732L130.991 144.71L130.542 145.45H112.195C110.207 145.45 108.422 147.06 108.211 149.047L109.227 139.329C109.438 137.342 111.223 135.732 113.211 135.732H136.434Z" fill="url(#paint9_linear)"/>
<path d="M120.302 126.732L119.358 135.732H113.219C111.23 135.732 109.445 137.342 109.235 139.329L110.178 130.329C110.388 128.342 112.174 126.732 114.162 126.732H120.302Z" fill="url(#paint10_linear)"/>
<path d="M147.792 117L147.008 118.305L146.972 118.363L146.906 118.472L146.892 118.487L146.877 118.508L145.941 120.053L144.083 123.121L141.877 126.761L125.469 126.732H123.313H114.162C112.174 126.732 110.388 128.342 110.178 130.329L111.187 120.72C111.39 118.762 113.081 117.152 115.018 117.015H117L117.014 117H147.792Z" fill="url(#paint11_linear)"/>
<defs>
<linearGradient id="paint0_linear" x1="187.449" y1="335.437" x2="173.038" y2="333.925" gradientUnits="userSpaceOnUse">
<stop stop-color="#231F20"/>
<stop offset="1" stop-color="#404041"/>
</linearGradient>
<linearGradient id="paint1_linear" x1="199.336" y1="339.244" x2="187.316" y2="337.984" gradientUnits="userSpaceOnUse">
<stop stop-color="#231F20"/>
<stop offset="1" stop-color="#404041"/>
</linearGradient>
<linearGradient id="paint2_linear" x1="166.167" y1="321.734" x2="166.167" y2="361.021" gradientUnits="userSpaceOnUse">
<stop stop-color="#B11117"/>
<stop offset="1" stop-color="#B11117" stop-opacity="0"/>
</linearGradient>
<linearGradient id="paint3_linear" x1="198.695" y1="339.188" x2="161.599" y2="335.298" gradientUnits="userSpaceOnUse">
<stop stop-color="#B11117"/>
<stop offset="1" stop-color="#B11117" stop-opacity="0"/>
</linearGradient>
<linearGradient id="paint4_linear" x1="156.74" y1="329.696" x2="172.791" y2="331.379" gradientUnits="userSpaceOnUse">
<stop stop-color="#B11117"/>
<stop offset="1" stop-color="#B11117" stop-opacity="0"/>
</linearGradient>
<linearGradient id="paint5_linear" x1="219.776" y1="320.193" x2="168.794" y2="314.846" gradientUnits="userSpaceOnUse">
<stop stop-color="#B11117"/>
<stop offset="1" stop-color="#B11117" stop-opacity="0"/>
</linearGradient>
<linearGradient id="paint6_linear" x1="136.566" y1="138.693" x2="122.362" y2="137.204" gradientUnits="userSpaceOnUse">
<stop stop-color="#231F20"/>
<stop offset="1" stop-color="#404041"/>
</linearGradient>
<linearGradient id="paint7_linear" x1="148.282" y1="142.447" x2="136.435" y2="141.205" gradientUnits="userSpaceOnUse">
<stop stop-color="#231F20"/>
<stop offset="1" stop-color="#404041"/>
</linearGradient>
<linearGradient id="paint8_linear" x1="115.591" y1="125.184" x2="115.591" y2="163.908" gradientUnits="userSpaceOnUse">
<stop stop-color="#B11117"/>
<stop offset="1" stop-color="#B11117" stop-opacity="0"/>
</linearGradient>
<linearGradient id="paint9_linear" x1="147.651" y1="142.389" x2="111.09" y2="138.555" gradientUnits="userSpaceOnUse">
<stop stop-color="#B11117"/>
<stop offset="1" stop-color="#B11117" stop-opacity="0"/>
</linearGradient>
<linearGradient id="paint10_linear" x1="106.301" y1="133.029" x2="122.12" y2="134.688" gradientUnits="userSpaceOnUse">
<stop stop-color="#B11117"/>
<stop offset="1" stop-color="#B11117" stop-opacity="0"/>
</linearGradient>
<linearGradient id="paint11_linear" x1="168.428" y1="123.665" x2="118.181" y2="118.395" gradientUnits="userSpaceOnUse">
<stop stop-color="#B11117"/>
<stop offset="1" stop-color="#B11117" stop-opacity="0"/>
</linearGradient>
</defs>
</svg>
