<svg width="24" height="24" viewBox="0 0 24 24" fill="none" xmlns="http://www.w3.org/2000/svg">
    <path d="m22.27 18.623.03.02.032.015c.116.055.196.19.16.366a.332.332 0 0 1-.328.251h-6.463l-.008.493C15.664 21.84 14.008 23.5 12 23.5s-3.664-1.66-3.694-3.732l-.007-.493H1.836a.332.332 0 0 1-.327-.251c-.037-.176.042-.31.159-.366l.032-.015.03-.02c.162-.107.837-.62 1.49-2.03 1.181-2.55 1.415-6.088 1.415-8.552 0-3.062 1.793-5.7 4.353-6.88a7.182 7.182 0 0 1 6.024.001c2.552 1.176 4.34 3.8 4.352 6.85V8.04c0 2.464.235 6.001 1.415 8.551.654 1.412 1.33 1.924 1.49 2.031zm-12.834.652h-.512l.012.512c.039 1.677 1.387 3.048 3.064 3.048s3.025-1.37 3.064-3.048l.012-.512H9.436zm-6.167-1.431-.482.766H21.212l-.481-.766a8.276 8.276 0 0 1-.403-.721C19.29 15.03 18.738 12 18.735 8.074v-.03c0-3.783-3.01-6.876-6.735-6.876-3.725 0-6.735 3.093-6.735 6.873 0 3.942-.551 6.984-1.593 9.082-.136.272-.271.511-.403.72z" fill="#000" stroke="#797979"/>
</svg>
