<svg width="38" height="33" viewBox="0 0 38 33" fill="none" xmlns="http://www.w3.org/2000/svg">
    <path d="M19 3.16A3.753 3.753 0 0 0 22.578.596c-.974.265-2.216.425-3.578.425-1.362 0-2.604-.16-3.578-.425A3.752 3.752 0 0 0 19 3.16z" fill="#404041"/>
    <path d="M37.953 5.037a.865.865 0 0 0-.453-.492l-7.245-3.307A35.358 35.358 0 0 0 25.56.016a.849.849 0 0 0-.997.645A5.692 5.692 0 0 1 19 5.067 5.692 5.692 0 0 1 13.439.661a.85.85 0 0 0-.998-.645 35.491 35.491 0 0 0-4.699 1.222L.5 4.545A.846.846 0 0 0 .094 5.7l3.145 6.138a.855.855 0 0 0 1.01.43l3.493-1.024v20.593c0 .467.386.849.86.849h20.796a.855.855 0 0 0 .857-.85V11.245l3.496 1.024a.858.858 0 0 0 1.01-.43L37.907 5.7a.844.844 0 0 0 .046-.664z" fill="#ED1C23"/>
</svg>
