<svg width="57" height="22" viewBox="0 0 57 22" fill="none" xmlns="http://www.w3.org/2000/svg">
    <defs>
        <linearGradient id="a5eu67nc8a" x1="12.008" y1="10.372" x2="8.19" y2="9.972" gradientUnits="userSpaceOnUse">
            <stop stop-color="#231F20"/>
            <stop offset="1" stop-color="#404041"/>
        </linearGradient>
        <linearGradient id="5nz6cxpgcb" x1="15.157" y1="11.381" x2="11.973" y2="11.047" gradientUnits="userSpaceOnUse">
            <stop stop-color="#231F20"/>
            <stop offset="1" stop-color="#404041"/>
        </linearGradient>
        <linearGradient id="ntqoxwznuc" x1="6.369" y1="6.741" x2="6.369" y2="17.151" gradientUnits="userSpaceOnUse">
            <stop stop-color="#B11117"/>
            <stop offset="1" stop-color="#B11117" stop-opacity="0"/>
        </linearGradient>
        <linearGradient id="n0spi4wlkd" x1="14.988" y1="11.366" x2="5.159" y2="10.335" gradientUnits="userSpaceOnUse">
            <stop stop-color="#B11117"/>
            <stop offset="1" stop-color="#B11117" stop-opacity="0"/>
        </linearGradient>
        <linearGradient id="ndj6tsuhve" x1="3.872" y1="8.85" x2="8.124" y2="9.296" gradientUnits="userSpaceOnUse">
            <stop stop-color="#B11117"/>
            <stop offset="1" stop-color="#B11117" stop-opacity="0"/>
        </linearGradient>
        <linearGradient id="7q3cjbf38f" x1="20.573" y1="6.332" x2="7.065" y2="4.916" gradientUnits="userSpaceOnUse">
            <stop stop-color="#B11117"/>
            <stop offset="1" stop-color="#B11117" stop-opacity="0"/>
        </linearGradient>
    </defs>
    <path d="M45.717 22c6.01 0 10.882-4.925 10.882-11S51.727 0 45.717 0H10.883C4.873 0 0 4.925 0 11s4.872 11 10.883 11h34.834z" fill="#E52224"/>
    <path d="M.754 10.932C.754 5.272 5.293.684 10.892.684c5.6 0 10.139 4.588 10.139 10.248 0 5.66-4.54 10.247-10.139 10.247-5.599 0-10.138-4.588-10.138-10.247zM31.268 15.643l.308-2.956h-.935l-.383 3.678h2.855l.075-.722h-1.92zM25.819 12.688h-2.24l-.383 3.677h2.24c.542 0 1.028-.445 1.085-.993l.176-1.692c.058-.548-.336-.992-.878-.992zm-.217 2.534a.476.476 0 0 1-.46.421h-.936l.233-2.234h.935a.37.37 0 0 1 .373.421l-.145 1.392zM30.136 13.408l.076-.721h-2.856l-.075.721-.232 2.235-.075.722h2.855l.075-.722h-1.946l.079-.753h1.54l.077-.728h-1.541l.078-.754h1.945zM42.529 13.408l.075-.721h-2.855l-.075.721-.233 2.235-.075.722h2.855l.075-.722h-1.945l.078-.753h1.541l.076-.728h-1.541l.078-.754h1.946zM35.493 13.408l.075-.721h-1.889l-.075.721h.455l-.233 2.235h-.455l-.075.722h1.889l.075-.722h-.455l.233-2.235h.455zM44.935 16.365h1l-.511-1.12a.903.903 0 0 0 .66-.764l.104-1.001a.697.697 0 0 0-.702-.793h-2.402l-.27 2.586-.113 1.092h.922l.114-1.092h.7l.498 1.092zm-1.007-2.93h1.073c.147 0 .254.12.238.269l-.057.552a.305.305 0 0 1-.295.27h-1.072l.114-1.092zM49.09 12.69l-1.042 1.784-.67-1.783h-1l1.108 2.745-.096.929h.923l.097-.93 1.68-2.744h-1zM38.474 12.69l-1.166 2.646-.616-2.645h-.998l.994 3.674h1.025l1.76-3.674h-.999zM25.2 11.442h-1.477l.604-5.807h4.555l-.12 1.161h-3.078l-.143 1.37h2.421l-.12 1.16H25.42l-.22 2.116zM30.441 10.28l.483-4.644h-1.477l-.605 5.806h4.028l.52-1.161H30.44zM37.738 5.636h-1.643l-2.779 5.806h1.6l.478-1.037.482-1.078.86-1.95.453 1.95h-.83l-.483 1.078h1.57l.261 1.037h1.6l-1.57-5.806zM44.563 8.34c-.226-.254-.608-.38-1.143-.38h-1.477c-.329 0-.475-.167-.441-.499l.017-.166c.034-.333.215-.498.544-.498h2.523l.697-1.161h-3.427c-.575 0-1.005.131-1.293.394-.288.263-.46.684-.522 1.265l-.026.249c-.06.58.026 1.002.259 1.265.232.263.636.394 1.21.394h1.888l-.078.746a.456.456 0 0 1-.14.303.443.443 0 0 1-.313.113c-.464 0-1.267.03-2.456-.017l-.656 1.094c.696.014.918.026 1.683.034l.752.007c.311.011.606.014.885.014.536 0 .944-.098 1.222-.354.278-.253.445-.651.502-1.194l.043-.415c.056-.542-.028-.94-.254-1.194zM50.224 11.443h-1.477l.246-2.365H46.94l-.246 2.365h-1.477l.603-5.808H47.3l-.237 2.282h2.052l.237-2.282h1.477l-.604 5.808z" fill="#fff"/>
    <path d="m33.39 10.28-.52 1.162.52-1.161.007-.016z" fill="#fff"/>
    <path d="m11.147 13.996-2.146 2.145c-.755-1.813-1.861-4.831-2.606-6.63l.513-4.908c.335.1.603.337.733.669l.084.21.666 1.675.21.532.667 1.685.08.202c.06.166 1.8 4.42 1.8 4.42z" fill="url(#a5eu67nc8a)" stroke="#252526" stroke-width=".12" stroke-miterlimit="10"/>
    <path d="m15.201 5.55-.613 5.843-.842 1.39-1.965 3.24-.236.384-.101.166h.002l-.053.088a1.13 1.13 0 0 1-.952.55h-.379a.879.879 0 0 1-.837-.552l-.07-.175-.101-.258-.127-.327 1.771-2.92 1.358-2.24.826-1.364L13.898 7.7l.716-1.182.501-.826.057-.094.03-.047z" fill="url(#5nz6cxpgcb)" stroke="#303131" stroke-width=".193" stroke-miterlimit="10"/>
    <path d="M16.924 4.545c.55 0 .952.448.893.998L16.7 16.207c-.059.55-.552.998-1.105.998h-.624a.886.886 0 0 1-.895-.998l.967-10.399.334-.56.425-.703h1.122z" fill="#404041" stroke="#303131" stroke-width=".193" stroke-miterlimit="10"/>
    <path d="m7.107 12.192-.421 4.022a1.14 1.14 0 0 1-1.105.998H4.96a.883.883 0 0 1-.894-.998l.32-3.055a1.103 1.103 0 0 1 1.071-.967h1.65z" fill="#ED1C24" stroke="#D52229" stroke-width=".048" stroke-miterlimit="10"/>
    <path d="m11.973 9.58-1.464 2.414-.12.199H5.456c-.535 0-1.015.432-1.071.966l.273-2.612a1.103 1.103 0 0 1 1.07-.967h6.244z" fill="#ED1C24" stroke="#D52229" stroke-width=".048" stroke-miterlimit="10"/>
    <path d="m7.636 7.159-.254 2.42H5.73c-.535 0-1.015.432-1.071.966l.253-2.42a1.103 1.103 0 0 1 1.071-.966h1.653z" fill="#ED1C24" stroke="#D52229" stroke-width=".048" stroke-miterlimit="10"/>
    <path d="m15.024 4.544-.211.351-.01.016-.017.029-.004.004-.002.004-.252.415-.5.825-.592.978-4.411-.006H5.983c-.534 0-1.014.433-1.07.967l.27-2.583a1.14 1.14 0 0 1 1.032-.996h.533l.004-.004h8.272z" fill="#ED1C24" stroke="#D52229" stroke-width=".048" stroke-miterlimit="10"/>
    <path d="m7.109 12.189-.421 4.022a1.14 1.14 0 0 1-1.105.998H4.96a.883.883 0 0 1-.894-.998l.32-3.055a1.103 1.103 0 0 1 1.071-.967H7.11z" fill="url(#ntqoxwznuc)"/>
    <path d="m11.973 9.576-1.464 2.414-.12.199H5.456c-.535 0-1.015.432-1.071.967l.273-2.613a1.103 1.103 0 0 1 1.07-.967h6.244z" fill="url(#n0spi4wlkd)"/>
    <path d="m7.636 7.157-.254 2.42h-1.65c-.535 0-1.015.432-1.072.966l.254-2.42a1.103 1.103 0 0 1 1.071-.966h1.65z" fill="url(#ndj6tsuhve)"/>
    <path d="m15.026 4.54-.211.351-.01.016-.017.03-.004.003-.004.006-.252.415-.5.825-.592.979-4.411-.008h-3.04c-.534 0-1.014.433-1.07.967l.27-2.583a1.14 1.14 0 0 1 1.03-.997h.533l.004-.003h8.274z" fill="url(#7q3cjbf38f)"/>
</svg>
