<svg xmlns="http://www.w3.org/2000/svg" width="178" height="54" fill="none" viewBox="0 0 178 54">
    <path fill="#ED1C24" d="M72.81 27.93h-6.065l2.482-23.565h18.697l-.495 4.713H74.797l-.583 5.558h9.935l-.495 4.713h-9.942l-.902 8.58zM94.323 23.216l1.98-18.85h-6.065l-2.482 23.563h16.526l2.131-4.713h-12.09zM124.272 4.365h-6.743L106.126 27.93h6.567l1.955-4.21 1.979-4.37 3.527-7.91 1.859 7.91h-3.407l-1.979 4.37h6.44l1.069 4.21h6.567l-6.431-23.564zM152.289 15.338c-.926-1.029-2.49-1.547-4.692-1.547h-6.065c-1.348 0-1.955-.678-1.811-2.018l.072-.678c.143-1.347.885-2.017 2.234-2.017h10.358l2.864-4.713h-14.068c-2.362 0-4.126.534-5.307 1.603s-1.891 2.775-2.138 5.136l-.112 1.012c-.247 2.353.112 4.067 1.061 5.136.958 1.068 2.61 1.603 4.964 1.603h7.748l-.319 3.03c-.048.518-.247.925-.582 1.228-.336.303-.766.462-1.285.462-1.899 0-5.203.128-10.079-.072l-2.689 4.442c2.857.056 3.767.104 6.911.136l3.088.032c1.277.047 2.49.056 3.631.056 2.194 0 3.87-.4 5.011-1.436 1.141-1.029 1.827-2.64 2.059-4.848l.175-1.683c.24-2.217-.111-3.836-1.029-4.864zM175.526 27.93h-6.064l1.005-9.594h-8.419l-1.005 9.593h-6.065l2.482-23.564h6.065l-.974 9.258h8.419l.965-9.258H178l-2.474 23.564z"/>
    <path fill="#404041" d="M82.72 40.864l-4.229 6.363h-3.567l-2.896-6.355-1.046 9.92h-4.58l1.875-17.807h4.836l4.102 9.41 6.08-9.41h4.836l-1.875 17.807h-4.58l1.045-9.928zM109.254 32.977h10.693c1.779 0 3.032.399 3.758 1.204.718.806.99 2.097.798 3.876l-.239 2.288c-.152 1.412-.495 2.504-1.046 3.278-.55.781-1.348 1.3-2.394 1.555l2.594 5.598h-4.964l-2.37-5.343h-3.559l-.558 5.343h-4.581l1.868-17.799zm10.669 5.088c.103-1.021-.351-1.523-1.365-1.523h-5.091l-.559 5.342H118c1.013 0 1.58-.51 1.683-1.523l.24-2.296zM130.297 50.784h-4.581l1.875-17.807h4.581l-.734 6.994h1.157l5.841-6.994h4.836l-7.046 8.78 5.147 9.027h-4.836l-4.317-7.249h-1.157l-.766 7.249zM157.045 50.784h-14.124l1.875-17.807h14.124l-.375 3.556h-9.544l-.359 3.438h7.509l-.375 3.564h-7.509l-.391 3.684h9.544l-.375 3.565zM168.304 50.784h-4.58l1.5-14.242h-5.346l.375-3.557h15.273l-.375 3.556h-5.346l-1.501 14.243zM101.242 32.977h-5.1l-8.617 17.807h4.963l1.476-3.182 1.5-3.301 2.666-5.981 1.404 5.98h-2.577l-1.5 3.302h4.867l.814 3.182h4.964l-4.86-17.807z"/>
    <path fill="url(#paint0_linear)" stroke="#252526" stroke-miterlimit="10" stroke-width=".25" d="M29.32 39.675l-8.778 8.772c-3.088-7.416-7.613-19.76-10.661-27.12l2.098-20.072c1.373.407 2.466 1.38 3 2.735l.344.862 2.721 6.85.862 2.177 2.729 6.89.327.829c.248.678 7.358 18.077 7.358 18.077z"/>
    <path fill="url(#paint1_linear)" stroke="#303131" stroke-miterlimit="10" stroke-width=".4" d="M45.902 5.13l-2.506 23.9-3.447 5.685-8.036 13.254-.965 1.57-.416.678h.009l-.216.36c-.846 1.387-2.338 2.248-3.894 2.248h-1.548c-1.556 0-2.873-.87-3.424-2.257l-.287-.717-.415-1.053-.519-1.34 7.246-11.945 5.554-9.163 3.376-5.574 4.157-6.858L43.5 9.086l2.05-3.381.232-.383.12-.191z"/>
    <path fill="#404041" stroke="#303131" stroke-miterlimit="10" stroke-width=".4" d="M52.948 1.016c2.25 0 3.894 1.834 3.655 4.083l-4.573 43.62c-.24 2.248-2.258 4.082-4.516 4.082H44.96c-2.25 0-3.894-1.834-3.663-4.083l3.958-42.535 1.365-2.288 1.74-2.879h4.588z"/>
    <path fill="#ED1C24" stroke="#D52229" stroke-miterlimit="10" stroke-width=".1" d="M12.793 32.3L11.07 48.75c-.24 2.249-2.267 4.083-4.517 4.083H4.008c-2.25 0-3.895-1.834-3.655-4.083L1.66 36.254C1.893 34.07 3.856 32.3 6.042 32.3h6.751z"/>
    <path fill="#ED1C24" stroke="#D52229" stroke-miterlimit="10" stroke-width=".1" d="M32.695 21.614l-5.985 9.872-.495.813H6.042c-2.186 0-4.15 1.77-4.38 3.955L2.778 25.57c.231-2.185 2.194-3.955 4.38-3.955h25.536z"/>
    <path fill="#ED1C24" stroke="#D52229" stroke-miterlimit="10" stroke-width=".1" d="M14.956 11.71l-1.037 9.896h-6.76c-2.186 0-4.149 1.77-4.38 3.955l1.037-9.896c.231-2.185 2.194-3.955 4.38-3.955h6.76z"/>
    <path fill="#ED1C24" stroke="#D52229" stroke-miterlimit="10" stroke-width=".1" d="M45.175 1.016l-.861 1.435-.04.064-.072.12-.016.016-.008.016-1.03 1.698-2.042 3.373-2.426 4.003-18.043-.024H8.197c-2.187 0-4.15 1.77-4.381 3.956l1.11-10.566c.223-2.153 2.082-3.924 4.22-4.075h2.179l.016-.016h33.834z"/>
    <path fill="url(#paint2_linear)" d="M12.801 32.283l-1.723 16.451c-.24 2.249-2.267 4.083-4.517 4.083H4.008c-2.25 0-3.895-1.834-3.655-4.083L1.66 36.24c.232-2.185 2.195-3.956 4.381-3.956h6.76z"/>
    <path fill="url(#paint3_linear)" d="M32.695 21.598L26.71 31.47l-.495.813H6.042c-2.186 0-4.15 1.77-4.38 3.956l1.117-10.686c.231-2.185 2.194-3.955 4.38-3.955h25.536z"/>
    <path fill="url(#paint4_linear)" d="M14.956 11.701l-1.037 9.897H7.167c-2.187 0-4.15 1.77-4.381 3.955l1.037-9.896c.231-2.185 2.194-3.956 4.38-3.956h6.752z"/>
    <path fill="url(#paint5_linear)" d="M45.184 1l-.862 1.435-.04.064-.072.12-.016.016-.016.024-1.03 1.698-2.042 3.373-2.426 4.003-18.043-.032H8.206c-2.187 0-4.15 1.77-4.381 3.956L4.934 5.09c.223-2.153 2.082-3.924 4.213-4.075h2.178L11.341 1h33.843z"/>
    <defs>
        <linearGradient id="paint0_linear" x1="32.84" x2="17.222" y1="24.853" y2="23.215" gradientUnits="userSpaceOnUse">
            <stop stop-color="#231F20"/>
            <stop offset="1" stop-color="#404041"/>
        </linearGradient>
        <linearGradient id="paint1_linear" x1="45.722" x2="32.696" y1="28.981" y2="27.615" gradientUnits="userSpaceOnUse">
            <stop stop-color="#231F20"/>
            <stop offset="1" stop-color="#404041"/>
        </linearGradient>
        <linearGradient id="paint2_linear" x1="9.776" x2="9.776" y1="9.999" y2="52.58" gradientUnits="userSpaceOnUse">
            <stop stop-color="#B11117"/>
            <stop offset="1" stop-color="#B11117" stop-opacity="0"/>
        </linearGradient>
        <linearGradient id="paint3_linear" x1="45.028" x2="4.826" y1="28.917" y2="24.701" gradientUnits="userSpaceOnUse">
            <stop stop-color="#B11117"/>
            <stop offset="1" stop-color="#B11117" stop-opacity="0"/>
        </linearGradient>
        <linearGradient id="paint4_linear" x1="-.439" x2="16.955" y1="18.626" y2="20.45" gradientUnits="userSpaceOnUse">
            <stop stop-color="#B11117"/>
            <stop offset="1" stop-color="#B11117" stop-opacity="0"/>
        </linearGradient>
        <linearGradient id="paint5_linear" x1="67.875" x2="12.623" y1="8.329" y2="2.534" gradientUnits="userSpaceOnUse">
            <stop stop-color="#B11117"/>
            <stop offset="1" stop-color="#B11117" stop-opacity="0"/>
        </linearGradient>
    </defs>
</svg>
