<svg width="375" height="812" fill="none" xmlns="http://www.w3.org/2000/svg">
    <path fill="#fff" d="M0 0h376v812H0z"/>
    <path d="M376 209-1 371.667V812h377V209z" fill="#ED1C23"/>
    <path d="M259.861 389.426H108.762l7.82-105.303a7.876 7.876 0 0 1 7.856-7.29h115.349c6.645 0 12.165 5.124 12.652 11.746l7.422 100.847z" fill="#262626"/>
    <path d="M253.176 389.426H115.447l3.044-104.948a7.876 7.876 0 0 1 7.875-7.645h111.221c6.864 0 12.481 5.454 12.681 12.308l2.908 100.285z" fill="#404041"/>
    <path d="M205.556 284.899h-44.905v-19.064c0-12.2 9.932-22.124 22.142-22.124 12.196 0 22.122 9.905 22.142 22.086l.621 19.102zm-40.423-4.479h35.792l-.474-14.585c0-9.729-7.921-17.645-17.658-17.645-9.737 0-17.66 7.916-17.66 17.645v14.585z" fill="#404041"/>
    <path d="M223.775 337.342c0 22.263-18.064 40.313-40.347 40.313s-40.346-18.05-40.346-40.313c0-22.265 18.063-40.315 40.346-40.315 22.284 0 40.347 18.05 40.347 40.315z" fill="#fff"/>
    <path d="M176.799 220.683c0 4.244-3.444 7.684-7.69 7.684a7.686 7.686 0 0 1-7.691-7.684 7.687 7.687 0 0 1 7.691-7.685c4.247 0 7.69 3.44 7.69 7.685z" fill="#ED1B23"/>
    <path d="M174.035 223.199a1.338 1.338 0 0 0-.846-.576l-.79-.165a3.09 3.09 0 0 0-.475-1.796l.273-.178a.987.987 0 0 0 .286-1.359.985.985 0 0 0-1.361-.285l-.738.481c.437-.594.598-1.342.369-2.05l-.012-.037a1.445 1.445 0 0 0 .545-1.624 1.443 1.443 0 0 0-2.77.088 2.882 2.882 0 0 0-1.848.597 1.442 1.442 0 1 0-.905 2.546l.012.038c.229.708.798 1.22 1.5 1.446l-.88.042a.982.982 0 1 0 .093 1.961l.325-.015a3.05 3.05 0 0 0 .667 1.735l-.544.595a1.333 1.333 0 0 0 .086 1.888c.545.498 1.391.46 1.89-.085l1.244-1.36a2.64 2.64 0 0 0 .682-.221l1.806.376a1.337 1.337 0 0 0 1.391-2.042zm-6.917-5.154a.276.276 0 1 1 .17.525.276.276 0 1 1-.17-.525zm2.066-.646a.277.277 0 1 1 .17.527.277.277 0 0 1-.17-.527zm.869 6.578a803.22 803.22 0 0 1-1.492-.759.92.92 0 0 1 .836-1.642.922.922 0 0 1 1.641.843l-.766 1.487a.165.165 0 0 1-.219.071zm-.359-8.603a.715.715 0 0 1 .899.459.715.715 0 0 1-.208.755 2.38 2.38 0 0 0-1.146-.768.714.714 0 0 1 .455-.446zm-1.368 2.89c.457-.148.936.066 1.069.477.133.412-.13.865-.587 1.012-.457.148-.936-.065-1.069-.477-.133-.411.13-.864.587-1.012zm-3.262-.645a.714.714 0 0 1 1.091-.803 2.378 2.378 0 0 0-.48 1.293.717.717 0 0 1-.611-.49z" fill="#fff"/>
    <path d="M168.848 218.598c-.059-.184-.273-.279-.478-.213-.204.066-.322.268-.262.452.059.184.273.28.478.214.204-.066.322-.269.262-.453z" fill="#fff"/>
    <path d="M148.454 272.786c5.018 0 9.086-4.065 9.086-9.079s-4.068-9.079-9.086-9.079c-5.019 0-9.087 4.065-9.087 9.079s4.068 9.079 9.087 9.079z" fill="#ED1B23"/>
    <path d="M152.943 259.63c-2.397-2.308-4.415.266-4.415.266a1.364 1.364 0 0 1-.61.402l-.676.178a1.337 1.337 0 0 1-.728-.05s-3.025-1.249-3.976 1.939c-.951 3.186.511 6 .511 6 .311.702.829 1.088 1.548.833.716-.253 1.804-2.583 1.804-2.583a.932.932 0 0 1 .536-.446l4.048-1.065a.934.934 0 0 1 .686.126s2.094 1.493 2.844 1.361c.75-.131 1.012-.723.937-1.486-.001 0-.112-3.168-2.509-5.475zm-6.136 4.003-.868.228.22.836s-.147.189-.432.26c-.286.071-.453-.044-.453-.044l-.216-.82-.82.216s-.13-.078-.23-.347c-.1-.269-.018-.529-.018-.529l.868-.228-.228-.868s.154-.142.412-.202c.259-.06.473-.013.473-.013l.221.852.82-.216s.191.146.261.366c.07.219-.01.509-.01.509zm4.233-.093a.71.71 0 1 1-.361-1.372.71.71 0 0 1 .361 1.372zm-.497-1.889a.709.709 0 1 1-.361-1.373.71.71 0 1 1 .361 1.373zm1.978.564a.71.71 0 1 1-.362-1.372.71.71 0 0 1 .362 1.372z" fill="#fff"/>
    <path d="M194.295 262.628c0 6.14-4.98 11.118-11.126 11.118-6.146 0-11.128-4.978-11.128-11.118 0-6.141 4.982-11.119 11.128-11.119s11.126 4.978 11.126 11.119z" fill="#ED1B23"/>
    <path d="M181.814 254.66a8.174 8.174 0 1 0 3.229 16.028c4.429-.891 7.298-5.201 6.406-9.627-.896-4.423-5.206-7.287-9.635-6.401zm.752 2.253 2.564-1.675c.345.08.685.183 1.016.309l.008.004c.325.124.641.271.947.438l.026.015c.138.077.272.157.404.241l.051.032c.139.09.275.184.408.282l.033.026c.116.088.231.18.342.275l.08.067c.122.106.241.214.356.327l-.081 2.473-2.551 1.461-3.059-1.577-.544-2.698zm-5.988 2.401.047-.092c.065-.129.134-.257.207-.381l.023-.04c.083-.143.172-.282.265-.418.011-.016.021-.032.033-.047.088-.127.181-.253.277-.375l.022-.028c.215-.271.447-.526.696-.766l.01-.009c.254-.243.525-.469.811-.675l3.024.544.544 2.699-2.211 2.635-2.917-.359-1.032-2.25c.063-.148.13-.294.201-.438zm1.42 8.717a7.566 7.566 0 0 1-.299-.321l-.024-.026a7.415 7.415 0 0 1-.278-.337l-.003-.003a7.51 7.51 0 0 1-.518-.758l-.001-.002a7.058 7.058 0 0 1-.213-.382l-.025-.048a7.957 7.957 0 0 1-.179-.372l-.016-.036a7.599 7.599 0 0 1-.323-.876l1.238-2.286 2.898.359 1.422 2.991-.948 1.982-2.731.115zm8.674 1.549c-.127.06-.259.116-.391.169l-.055.022a7.028 7.028 0 0 1-.343.125l-.092.031a6.829 6.829 0 0 1-.326.097l-.103.029a7.373 7.373 0 0 1-.824.169c-.016.004-.031.004-.047.006a8.706 8.706 0 0 1-.353.043h-.014a7.772 7.772 0 0 1-.778.032l-2.08-2.156.933-1.955 3.725-.749 1.64 1.449-.892 2.688zm4.391-6.773-.001.039a9.31 9.31 0 0 1-.021.412l-.004.054a8.857 8.857 0 0 1-.049.434v.003a7.465 7.465 0 0 1-.185.899l-.002.004a7.21 7.21 0 0 1-.126.418l-.011.033a6.93 6.93 0 0 1-.152.411l-2.554.947-1.651-1.459.154-3.307 2.534-1.451 2.026 1.629c.033.31.047.622.042.934z" fill="#fff"/>
    <path d="M212.447 243.016c0 4.451-3.612 8.059-8.066 8.059-4.454 0-8.065-3.608-8.065-8.059 0-4.451 3.611-8.059 8.065-8.059 4.454 0 8.066 3.608 8.066 8.059z" fill="#ED1B23"/>
    <path d="M205.301 238.553h-1.84v8.926h1.84v-8.926z" fill="#fff"/>
    <path d="M208.848 242.097h-8.934v1.838h8.934v-1.838z" fill="#fff"/>
    <path d="M187.557 215.318a3.845 3.845 0 0 1-3.847 3.844 3.846 3.846 0 0 1-3.848-3.844 3.847 3.847 0 0 1 7.695 0z" fill="#FF4F4F"/>
    <path d="M184.148 213.189h-.876v4.257h.876v-4.257z" fill="#fff"/>
    <path d="M185.841 214.879h-4.261v.877h4.261v-.877z" fill="#fff"/>
    <path d="M223.906 248.977a6.656 6.656 0 0 0 6.659-6.654 6.656 6.656 0 0 0-6.659-6.653 6.656 6.656 0 0 0-6.659 6.653 6.656 6.656 0 0 0 6.659 6.654z" fill="#ED1B23"/>
    <path d="M227.613 245.74h-7.247a.997.997 0 0 1-.997-.996v-4.63c0-.55.447-.995.997-.995h7.247c.55 0 .996.445.996.995v4.63c0 .55-.445.996-.996.996zm-6.25-1.992h5.254v-2.639h-5.254v2.639z" fill="#fff"/>
    <path d="M224.081 243.339a1.03 1.03 0 1 0 0-2.06 1.03 1.03 0 0 0 0 2.06zM225.942 241.081a1.245 1.245 0 0 1-1.246-1.244v-.554a1.245 1.245 0 0 1 2.491 0v.554c0 .687-.558 1.244-1.245 1.244z" fill="#fff"/>
    <path d="M195.38 231.599c0 5.345-4.336 9.679-9.688 9.679-5.35 0-9.686-4.334-9.686-9.679 0-5.346 4.336-9.68 9.686-9.68 5.352 0 9.688 4.334 9.688 9.68zM197.031 223.061a6.124 6.124 0 0 0 6.126-6.122 6.124 6.124 0 0 0-6.126-6.121 6.124 6.124 0 0 0-6.127 6.121 6.124 6.124 0 0 0 6.127 6.122z" fill="#ED1B23"/>
    <path d="M200.009 214.215c.297.099.498.719.276 1.714-.221.994-.552 3.26-.552 3.26h-.83s.387-2.432-.387-2.653c-.774-.221-1.272 2.653-3.042 2.653-1.771 0-2.876.055-2.932-.442-.055-.497 2.378-.939 3.375-2.211 1.47-1.877 3.594-2.486 4.092-2.321z" fill="#fff"/>
    <path d="M155.316 252.838c7.386 0 13.373-5.982 13.373-13.361 0-7.379-5.987-13.361-13.373-13.361-7.385 0-13.372 5.982-13.372 13.361 0 7.379 5.987 13.361 13.372 13.361z" fill="#ED1B23"/>
    <path d="M163.228 234.708a.362.362 0 0 0-.189-.208l-3.024-1.395a14.628 14.628 0 0 0-1.961-.516.355.355 0 0 0-.416.272 2.381 2.381 0 0 1-2.321 1.859 2.382 2.382 0 0 1-2.322-1.859.356.356 0 0 0-.416-.272c-.662.126-1.317.298-1.962.516l-3.023 1.395a.352.352 0 0 0-.188.207.346.346 0 0 0 .019.28l1.313 2.589a.355.355 0 0 0 .421.182l1.458-.432v8.687a.36.36 0 0 0 .359.358h8.681a.359.359 0 0 0 .358-.358v-8.687l1.459.432a.359.359 0 0 0 .422-.181l1.314-2.589a.368.368 0 0 0 .018-.28z" fill="#fff"/>
    <path d="M222.917 225.76c.079 4.944-3.869 9.017-8.816 9.096-4.949.079-9.025-3.865-9.104-8.81-.08-4.944 3.868-9.017 8.816-9.096 4.949-.079 9.025 3.865 9.104 8.81z" fill="#ED1B23"/>
    <path d="M173.677 242.613a2.55 2.55 0 1 0 0-5.099 2.55 2.55 0 1 0 0 5.099zM157.177 223.306a1.87 1.87 0 1 0 .002-3.74 1.87 1.87 0 0 0-.002 3.74zM144.275 251.621a2.338 2.338 0 1 1-4.676-.002 2.338 2.338 0 0 1 4.676.002zM199.999 232.784a2.584 2.584 0 1 0-2.586-2.584 2.585 2.585 0 0 0 2.586 2.584z" fill="#404041"/>
    <path d="M229.006 262.584c0 6.177-5.01 11.184-11.194 11.184-6.18 0-11.192-5.007-11.192-11.184 0-6.176 5.012-11.183 11.192-11.183 6.184-.001 11.194 5.007 11.194 11.183z" fill="#ED1B23"/>
    <path d="M223.682 263.686a5.94 5.94 0 0 0-1.559-4.935v-3.425l-4.62-1.154-1.614 3.024a5.942 5.942 0 0 0-3.873 4.189 5.937 5.937 0 0 0 1.444 5.517v3.428l4.62 1.154 1.613-3.022a5.945 5.945 0 0 0 3.7-3.621l1.184.295.289-1.154-1.184-.296zm-7.046 3.758a4.763 4.763 0 0 1-3.465-5.77 4.77 4.77 0 0 1 5.776-3.463 4.764 4.764 0 0 1 3.465 5.771 4.768 4.768 0 0 1-5.776 3.462z" fill="#fff"/>
    <path d="m218.358 263.017.733-2.93-1.155-.289-.822 3.285.932 2.466 1.107-.416-.795-2.116z" fill="#fff"/>
    <path d="m184.205 349.113-8.099 8.093c-2.85-6.842-7.025-18.231-9.838-25.022l1.937-18.518a4.227 4.227 0 0 1 2.769 2.524l.316.794 2.511 6.32.795 2.008 2.518 6.357.302.765c.229.626 6.789 16.679 6.789 16.679z" fill="url(#a)" stroke="#252526" stroke-width=".25" stroke-miterlimit="10"/>
    <path d="m199.507 317.241-2.313 22.05-3.181 5.246-7.415 12.228-.89 1.449-.383.626h.007l-.199.331c-.78 1.28-2.158 2.074-3.593 2.074h-1.429c-1.436 0-2.651-.802-3.159-2.082l-.264-.662-.383-.971-.479-1.236 6.686-11.022 5.125-8.453 3.114-5.143 3.837-6.327 2.702-4.459 1.892-3.119.214-.353.111-.177z" fill="url(#b)" stroke="#303131" stroke-width=".4" stroke-miterlimit="10"/>
    <path d="M206.008 313.445c2.077 0 3.594 1.692 3.373 3.767l-4.22 40.244c-.221 2.075-2.084 3.767-4.167 3.767h-2.357c-2.076 0-3.593-1.692-3.379-3.767l3.652-39.244 1.259-2.111 1.605-2.656h4.234z" fill="#404041" stroke="#303131" stroke-width=".4" stroke-miterlimit="10"/>
    <path d="m168.956 342.308-1.591 15.177c-.221 2.075-2.091 3.768-4.167 3.768h-2.349c-2.077 0-3.594-1.692-3.373-3.768l1.208-11.528c.213-2.016 2.025-3.649 4.042-3.649h6.23z" fill="#ED1C24" stroke="#D52229" stroke-width=".1" stroke-miterlimit="10"/>
    <path d="m187.32 332.449-5.522 9.108-.457.75h-18.614c-2.018 0-3.829 1.634-4.043 3.65l1.031-9.859c.214-2.016 2.025-3.649 4.042-3.649h23.563z" fill="#ED1C24" stroke="#D52229" stroke-width=".1" stroke-miterlimit="10"/>
    <path d="m170.951 323.311-.957 9.131h-6.237c-2.017 0-3.829 1.633-4.042 3.649l.957-9.131c.214-2.016 2.025-3.649 4.043-3.649h6.236z" fill="#ED1C24" stroke="#D52229" stroke-width=".1" stroke-miterlimit="10"/>
    <path d="m198.836 313.445-.795 1.324-.037.059-.066.11-.015.015-.007.015-.95 1.567-1.885 3.112-2.238 3.694-16.649-.022h-11.479c-2.018 0-3.829 1.633-4.042 3.649l1.023-9.749c.206-1.987 1.922-3.619 3.895-3.759h2.01l.015-.015h31.22z" fill="#ED1C24" stroke="#D52229" stroke-width=".1" stroke-miterlimit="10"/>
    <path d="m168.963 342.293-1.59 15.178c-.221 2.074-2.091 3.767-4.168 3.767h-2.356c-2.076 0-3.593-1.692-3.372-3.767l1.207-11.529c.214-2.016 2.025-3.649 4.043-3.649h6.236z" fill="url(#c)"/>
    <path d="m187.32 332.434-5.522 9.108-.457.751h-18.614c-2.018 0-3.829 1.633-4.043 3.649l1.031-9.859c.214-2.016 2.025-3.649 4.042-3.649h23.563z" fill="url(#d)"/>
    <path d="m170.951 323.304-.957 9.13h-6.229c-2.018 0-3.829 1.633-4.043 3.649l.957-9.13c.214-2.016 2.025-3.649 4.043-3.649h6.229z" fill="url(#e)"/>
    <path d="m198.844 313.43-.796 1.325-.036.059-.067.11-.014.015-.015.022-.95 1.567-1.885 3.112-2.238 3.693-16.649-.029h-11.472c-2.017 0-3.829 1.633-4.042 3.649l1.023-9.748c.206-1.987 1.922-3.62 3.888-3.76h2.01l.015-.015h31.228z" fill="url(#f)"/>
    <path d="M180.603 226.015c-.564.073-1.14 1.107-1.095 2.959.045 1.851-.161 6.007-.161 6.007l1.479.292s.165-4.472 1.624-4.595c1.457-.121 1.335 5.178 4.49 5.799 3.156.622 5.108 1.108 5.382.241.274-.867-3.909-2.51-5.239-5.127-1.96-3.864-5.534-5.695-6.48-5.576zM208.855 228.734a.998.998 0 0 0 0 1.412l1.269 1.267a1 1 0 0 0 1.413 0l4.095-4.091-2.69-2.672-4.087 4.084zm4.704-1.646-.92.92-.375-.375.92-.919.375.374zM215.735 220.208a.365.365 0 0 0-.518 0l-.545.543c-.169.17-.299.374-.381.599l-1.035 2.864 2.818 2.8 2.857-1.039c.223-.081.425-.21.593-.377l.545-.541a.368.368 0 0 0 .001-.519l-4.335-4.33zM220.54 224.531l-.192.137-4.746-4.802.18-.153 4.758 4.818z" fill="#fff"/>
    <ellipse opacity=".4" cx="182.5" cy="412.5" rx="77.5" ry="6.5" fill="#000"/>
    <path d="M172.916 141.49h-5.515l2.257-21.43h17.003l-.45 4.286h-11.488l-.53 5.055h9.036l-.45 4.286h-9.043l-.82 7.803zM192.481 137.204l1.8-17.144h-5.515l-2.257 21.43h15.029l1.938-4.286h-10.995zM219.718 120.06h-6.133l-10.37 21.43h5.972l1.778-3.829 1.8-3.974 3.208-7.194 1.691 7.194h-3.099l-1.8 3.974h5.857l.972 3.829h5.973l-5.849-21.43zM245.197 130.039c-.841-.935-2.264-1.407-4.267-1.407h-5.515c-1.227 0-1.778-.616-1.648-1.834l.066-.617c.13-1.226.805-1.835 2.032-1.835h9.419l2.606-4.286h-12.795c-2.148 0-3.752.486-4.826 1.458-1.074.972-1.72 2.524-1.944 4.67l-.102.921c-.225 2.14.102 3.699.965 4.671.871.972 2.373 1.457 4.514 1.457h7.047l-.291 2.756c-.043.472-.224.841-.529 1.117-.305.276-.697.421-1.169.421-1.727 0-4.731.116-9.165-.066l-2.446 4.04c2.598.051 3.425.094 6.285.123l2.808.029c1.161.044 2.264.051 3.302.051 1.996 0 3.52-.363 4.558-1.305 1.037-.936 1.661-2.401 1.872-4.41l.16-1.53c.217-2.016-.102-3.488-.937-4.424zM266.33 141.49h-5.515l.914-8.724h-7.656l-.914 8.724h-5.516l2.257-21.43h5.516l-.886 8.42h7.656l.879-8.42h5.515l-2.25 21.43z" fill="#ED1C24"/>
    <path d="m181.93 153.253-3.847 5.788h-3.244l-2.634-5.78-.951 9.021h-4.165l1.705-16.194h4.398l3.73 8.558 5.53-8.558h4.398l-1.706 16.194h-4.165l.951-9.029zM206.06 146.081h9.724c1.619 0 2.758.363 3.418 1.095.653.733.9 1.907.726 3.525l-.218 2.081c-.138 1.284-.45 2.277-.95 2.981-.501.71-1.227 1.182-2.178 1.414l2.359 5.091h-4.514l-2.155-4.859h-3.237l-.508 4.859h-4.166l1.699-16.187zm9.702 4.627c.095-.928-.319-1.385-1.241-1.385h-4.63l-.508 4.859h4.63c.922 0 1.437-.465 1.532-1.386l.217-2.088zM225.197 162.275h-4.166l1.705-16.194h4.166l-.668 6.36h1.053l5.312-6.36h4.398l-6.408 7.985 4.681 8.209h-4.398l-3.926-6.592h-1.053l-.696 6.592zM249.523 162.275h-12.845l1.705-16.194h12.845l-.341 3.234h-8.68l-.326 3.126h6.829l-.341 3.242h-6.829l-.356 3.35h8.68l-.341 3.242zM259.763 162.275h-4.166l1.364-12.952h-4.862l.341-3.235h13.89l-.341 3.235h-4.862l-1.364 12.952zM198.773 146.081h-4.637l-7.838 16.194h4.514l1.343-2.894 1.364-3.002 2.424-5.439 1.277 5.439h-2.344l-1.364 3.002h4.427l.74 2.894h4.514l-4.42-16.194z" fill="#404041"/>
    <path d="m133.365 152.173-7.983 7.977c-2.809-6.744-6.924-17.971-9.696-24.664l1.909-18.254a4.163 4.163 0 0 1 2.728 2.488l.313.783 2.474 6.229.784 1.98 2.482 6.266.297.754c.225.617 6.692 16.441 6.692 16.441z" fill="url(#g)" stroke="#252526" stroke-width=".25" stroke-miterlimit="10"/>
    <path d="m148.445 120.757-2.279 21.734-3.135 5.171-7.308 12.053-.878 1.429-.377.616h.007l-.196.327c-.769 1.261-2.126 2.045-3.542 2.045h-1.407c-1.416 0-2.613-.791-3.114-2.053l-.261-.652-.377-.958-.472-1.218 6.589-10.864 5.051-8.332 3.07-5.07 3.781-6.236 2.664-4.395 1.865-3.075.21-.348.109-.174z" fill="url(#h)" stroke="#303131" stroke-width=".4" stroke-miterlimit="10"/>
    <path d="M154.853 117.015c2.047 0 3.542 1.668 3.324 3.713l-4.159 39.669c-.217 2.045-2.053 3.713-4.107 3.713h-2.322c-2.047 0-3.542-1.668-3.331-3.713l3.599-38.683 1.241-2.081 1.582-2.618h4.173z" fill="#404041" stroke="#303131" stroke-width=".4" stroke-miterlimit="10"/>
    <path d="m118.335 145.465-1.568 14.961c-.217 2.045-2.061 3.713-4.107 3.713h-2.315c-2.047 0-3.542-1.668-3.324-3.713l1.19-11.364c.211-1.987 1.996-3.597 3.984-3.597h6.14z" fill="#ED1C24" stroke="#D52229" stroke-width=".1" stroke-miterlimit="10"/>
    <path d="m136.434 135.747-5.443 8.978-.449.74h-18.347c-1.988 0-3.773 1.61-3.984 3.597l1.016-9.718c.211-1.987 1.996-3.597 3.984-3.597h23.223z" fill="#ED1C24" stroke="#D52229" stroke-width=".1" stroke-miterlimit="10"/>
    <path d="m120.302 126.74-.944 9h-6.147c-1.988 0-3.773 1.61-3.984 3.597l.944-9c.21-1.987 1.995-3.597 3.984-3.597h6.147z" fill="#ED1C24" stroke="#D52229" stroke-width=".1" stroke-miterlimit="10"/>
    <path d="m147.785 117.015-.784 1.305-.037.058-.065.109-.014.014-.008.015-.936 1.544-1.858 3.068-2.206 3.641-16.408-.022h-11.314c-1.989 0-3.774 1.61-3.984 3.597l1.008-9.609c.204-1.958 1.895-3.568 3.839-3.706H117l.014-.014h30.771z" fill="#ED1C24" stroke="#D52229" stroke-width=".1" stroke-miterlimit="10"/>
    <path d="m118.342 145.45-1.567 14.961c-.218 2.045-2.061 3.713-4.108 3.713h-2.322c-2.047 0-3.542-1.668-3.324-3.713l1.19-11.364c.211-1.987 1.996-3.597 3.984-3.597h6.147z" fill="url(#i)"/>
    <path d="m136.434 135.732-5.443 8.978-.449.74h-18.347c-1.988 0-3.773 1.61-3.984 3.597l1.016-9.718c.211-1.987 1.996-3.597 3.984-3.597h23.223z" fill="url(#j)"/>
    <path d="m120.302 126.732-.944 9h-6.139c-1.989 0-3.774 1.61-3.984 3.597l.943-9c.21-1.987 1.996-3.597 3.984-3.597h6.14z" fill="url(#k)"/>
    <path d="m147.792 117-.784 1.305-.036.058-.066.109-.014.015-.015.021-.936 1.545-1.858 3.068-2.206 3.64-16.408-.029h-11.307c-1.988 0-3.774 1.61-3.984 3.597l1.009-9.609c.203-1.958 1.894-3.568 3.831-3.705H117l.014-.015h30.778z" fill="url(#l)"/>
    <defs>
        <linearGradient id="a" x1="187.449" y1="335.437" x2="173.038" y2="333.925" gradientUnits="userSpaceOnUse">
            <stop stop-color="#231F20"/>
            <stop offset="1" stop-color="#404041"/>
        </linearGradient>
        <linearGradient id="b" x1="199.336" y1="339.244" x2="187.316" y2="337.984" gradientUnits="userSpaceOnUse">
            <stop stop-color="#231F20"/>
            <stop offset="1" stop-color="#404041"/>
        </linearGradient>
        <linearGradient id="c" x1="166.167" y1="321.734" x2="166.167" y2="361.021" gradientUnits="userSpaceOnUse">
            <stop stop-color="#B11117"/>
            <stop offset="1" stop-color="#B11117" stop-opacity="0"/>
        </linearGradient>
        <linearGradient id="d" x1="198.695" y1="339.188" x2="161.599" y2="335.298" gradientUnits="userSpaceOnUse">
            <stop stop-color="#B11117"/>
            <stop offset="1" stop-color="#B11117" stop-opacity="0"/>
        </linearGradient>
        <linearGradient id="e" x1="156.74" y1="329.696" x2="172.791" y2="331.379" gradientUnits="userSpaceOnUse">
            <stop stop-color="#B11117"/>
            <stop offset="1" stop-color="#B11117" stop-opacity="0"/>
        </linearGradient>
        <linearGradient id="f" x1="219.776" y1="320.193" x2="168.794" y2="314.846" gradientUnits="userSpaceOnUse">
            <stop stop-color="#B11117"/>
            <stop offset="1" stop-color="#B11117" stop-opacity="0"/>
        </linearGradient>
        <linearGradient id="g" x1="136.566" y1="138.693" x2="122.362" y2="137.204" gradientUnits="userSpaceOnUse">
            <stop stop-color="#231F20"/>
            <stop offset="1" stop-color="#404041"/>
        </linearGradient>
        <linearGradient id="h" x1="148.282" y1="142.447" x2="136.435" y2="141.205" gradientUnits="userSpaceOnUse">
            <stop stop-color="#231F20"/>
            <stop offset="1" stop-color="#404041"/>
        </linearGradient>
        <linearGradient id="i" x1="115.591" y1="125.184" x2="115.591" y2="163.908" gradientUnits="userSpaceOnUse">
            <stop stop-color="#B11117"/>
            <stop offset="1" stop-color="#B11117" stop-opacity="0"/>
        </linearGradient>
        <linearGradient id="j" x1="147.651" y1="142.389" x2="111.09" y2="138.555" gradientUnits="userSpaceOnUse">
            <stop stop-color="#B11117"/>
            <stop offset="1" stop-color="#B11117" stop-opacity="0"/>
        </linearGradient>
        <linearGradient id="k" x1="106.301" y1="133.029" x2="122.12" y2="134.688" gradientUnits="userSpaceOnUse">
            <stop stop-color="#B11117"/>
            <stop offset="1" stop-color="#B11117" stop-opacity="0"/>
        </linearGradient>
        <linearGradient id="l" x1="168.428" y1="123.665" x2="118.181" y2="118.395" gradientUnits="userSpaceOnUse">
            <stop stop-color="#B11117"/>
            <stop offset="1" stop-color="#B11117" stop-opacity="0"/>
        </linearGradient>
    </defs>
</svg>
