<svg width="38" height="33" viewBox="0 0 38 33" fill="none" xmlns="http://www.w3.org/2000/svg">
    <path d="M28.1 18.935a11.045 11.045 0 0 0-18.202 0 15.346 15.346 0 0 0-3.67 9.355 4.178 4.178 0 0 0 1.362 3.39 5.126 5.126 0 0 0 3.38.995c1.503-.058 3-.247 4.47-.564a22.016 22.016 0 0 1 3.564-.475c1.098.063 2.19.214 3.264.451 2.918.542 6.227 1.155 8.138-.434a4.14 4.14 0 0 0 1.37-3.363 15.345 15.345 0 0 0-3.676-9.355z" fill="#DF2027"/>
    <path d="M28.363 2.172a4.197 4.197 0 0 0-7.352 0 8.907 8.907 0 0 0 0 9.372 4.197 4.197 0 0 0 7.352 0 8.908 8.908 0 0 0 0-9.372zM16.989 2.171a4.197 4.197 0 0 0-7.352 0 8.907 8.907 0 0 0 0 9.372 4.196 4.196 0 0 0 7.352 0 8.908 8.908 0 0 0 0-9.372zM37.78 12.932a3.824 3.824 0 0 0-2.276-2.625 3.578 3.578 0 0 0-2.79.158 5.74 5.74 0 0 0-2.85 3.366 6.207 6.207 0 0 0-.155 3.758 3.824 3.824 0 0 0 2.277 2.624c.377.142.777.214 1.18.213a3.802 3.802 0 0 0 1.61-.37 5.74 5.74 0 0 0 2.85-3.365c.439-1.207.493-2.52.154-3.759zM8.133 13.831a5.74 5.74 0 0 0-2.85-3.366 3.58 3.58 0 0 0-2.792-.158A3.823 3.823 0 0 0 .22 12.932a6.207 6.207 0 0 0 .154 3.758 5.74 5.74 0 0 0 2.85 3.365c.503.24 1.052.366 1.61.37a3.35 3.35 0 0 0 1.18-.213 3.824 3.824 0 0 0 2.277-2.625 6.208 6.208 0 0 0-.158-3.756z" fill="#3A3A3C"/>
</svg>
