<svg width="24" height="24" viewBox="0 0 24 24" fill="none" xmlns="http://www.w3.org/2000/svg">
    <path d="M23.723 10.242c.76 1.4-.12 3.241-1.72 3.361h-.24c-1.36 0-2.441-1.08-2.441-2.44 0 1.36-1.08 2.44-2.44 2.44-1.361 0-2.441-1.08-2.441-2.44 0 1.36-1.08 2.44-2.441 2.44-1.36 0-2.44-1.08-2.44-2.44 0 1.36-1.08 2.44-2.441 2.44-1.36 0-2.44-1.08-2.44-2.44 0 1.36-1.081 2.44-2.442 2.44h-.24c-1.6-.16-2.48-1.96-1.72-3.36L4.278 2.76c.24-.48.72-.76 1.24-.76H18.481c.52 0 1 .28 1.241.76l4.001 7.482z" fill="#797979"/>
    <mask id="7bobfbiopa" fill="#fff">
        <path d="M2.8 10.002h18.406v11.204a2 2 0 0 1-2 2H4.8a2 2 0 0 1-2-2V10.002z"/>
    </mask>
    <path d="M2.8 10.002v-1.83H.97v1.83H2.8zm18.406 0h1.83v-1.83h-1.83v1.83zM2.8 11.832h18.405v-3.66H2.8v3.66zm16.575-1.83v11.204h3.66V10.002h-3.66zm-.17 11.374H4.8v3.66h14.405v-3.66zm-14.575-.17V10.002H.97v11.204h3.66zm.17.17a.17.17 0 0 1-.17-.17H.97a3.83 3.83 0 0 0 3.83 3.83v-3.66zm14.575-.17a.17.17 0 0 1-.17.17v3.66a3.83 3.83 0 0 0 3.83-3.83h-3.66z" fill="#797979" mask="url(#7bobfbiopa)"/>
    <path fill="#797979" d="M9.202 16.004h5.201v6.802H9.202z"/>
</svg>
