<svg width="84" height="26" fill="none" xmlns="http://www.w3.org/2000/svg">
    <defs>
        <linearGradient id="a" x1="16.141" y1="12.109" x2="8.867" y2="11.346" gradientUnits="userSpaceOnUse">
            <stop stop-color="#231F20"/>
            <stop offset="1" stop-color="#404041"/>
        </linearGradient>
        <linearGradient id="b" x1="22.14" y1="14.031" x2="16.074" y2="13.395" gradientUnits="userSpaceOnUse">
            <stop stop-color="#231F20"/>
            <stop offset="1" stop-color="#404041"/>
        </linearGradient>
        <linearGradient id="c" x1="5.399" y1="5.191" x2="5.399" y2="25.022" gradientUnits="userSpaceOnUse">
            <stop stop-color="#B11117"/>
            <stop offset="1" stop-color="#B11117" stop-opacity="0"/>
        </linearGradient>
        <linearGradient id="d" x1="21.817" y1="14.002" x2="3.094" y2="12.038" gradientUnits="userSpaceOnUse">
            <stop stop-color="#B11117"/>
            <stop offset="1" stop-color="#B11117" stop-opacity="0"/>
        </linearGradient>
        <linearGradient id="e" x1=".642" y1="9.209" x2="8.743" y2="10.058" gradientUnits="userSpaceOnUse">
            <stop stop-color="#B11117"/>
            <stop offset="1" stop-color="#B11117" stop-opacity="0"/>
        </linearGradient>
        <linearGradient id="f" x1="32.457" y1="4.413" x2="6.726" y2="1.715" gradientUnits="userSpaceOnUse">
            <stop stop-color="#B11117"/>
            <stop offset="1" stop-color="#B11117" stop-opacity="0"/>
        </linearGradient>
    </defs>
    <path d="M34.756 13.542H31.93l1.156-10.975h8.708l-.23 2.195H35.68l-.271 2.589h4.627l-.23 2.195h-4.631l-.42 3.996zM44.775 11.347l.922-8.78h-2.825l-1.155 10.975h7.696l.993-2.195h-5.63zM58.723 2.567h-3.14l-5.311 10.975h3.058l.91-1.961.922-2.035 1.643-3.685.866 3.685h-1.587l-.922 2.035h3l.498 1.96h3.058L58.723 2.568zM71.771 7.677c-.431-.479-1.16-.72-2.185-.72H66.76c-.628 0-.91-.316-.843-.94l.033-.315c.067-.628.413-.94 1.04-.94h4.825l1.334-2.195h-6.552c-1.1 0-1.921.25-2.472.747-.55.497-.88 1.292-.996 2.391l-.052.472c-.115 1.096.052 1.894.495 2.392.446.497 1.215.746 2.311.746h3.609l-.149 1.412a.845.845 0 0 1-.271.571.862.862 0 0 1-.598.216c-.885 0-2.423.06-4.694-.034l-1.253 2.069c1.33.026 1.755.048 3.219.063l1.438.015c.595.022 1.16.026 1.691.026 1.022 0 1.802-.186 2.334-.668.531-.48.851-1.23.959-2.258l.082-.784c.111-1.033-.053-1.786-.48-2.266zM82.593 13.542H79.77l.468-4.468h-3.92l-.469 4.468h-2.824l1.155-10.975h2.825L76.55 6.88h3.921l.45-4.312h2.824l-1.152 10.975z" fill="#ED1C24"/>
    <path d="m39.371 19.565-1.97 2.964h-1.66l-1.35-2.96-.486 4.62H31.77l.874-8.293h2.252l1.91 4.383 2.832-4.383h2.252l-.873 8.293h-2.133l.486-4.624zM51.728 15.893h4.98c.83 0 1.413.185 1.75.56.335.375.462.977.373 1.805l-.112 1.066c-.07.657-.23 1.166-.487 1.526-.256.364-.628.606-1.115.725l1.208 2.607h-2.312l-1.103-2.488h-1.658l-.26 2.488H50.86l.87-8.29zm4.97 2.369c.048-.476-.164-.71-.636-.71H53.69l-.26 2.489h2.37c.473 0 .736-.238.785-.71l.111-1.07zM61.529 24.185h-2.134l.874-8.292h2.133l-.342 3.256h.54l2.72-3.257h2.252l-3.282 4.09 2.397 4.203h-2.252l-2.01-3.375h-.54l-.356 3.375zM73.986 24.185h-6.578l.873-8.292h6.578l-.174 1.656H70.24l-.167 1.6h3.497l-.175 1.66h-3.497l-.182 1.716h4.445l-.175 1.66zM79.23 24.185h-2.133l.698-6.633h-2.49l.175-1.656h7.113l-.174 1.656h-2.49l-.7 6.633zM47.997 15.893h-2.374l-4.014 8.292h2.311l.688-1.481.699-1.538 1.24-2.785.655 2.785h-1.2l-.7 1.538h2.268l.379 1.481h2.312l-2.264-8.292z" fill="#404041"/>
    <path d="m14.501 19.012-4.088 4.085c-1.438-3.454-3.545-9.203-4.965-12.63l.978-9.348c.639.19 1.148.642 1.397 1.274l.16.4L9.25 5.985l.401 1.014 1.271 3.209.153.386c.115.316 3.426 8.42 3.426 8.42z" fill="url(#a)" stroke="#252526" stroke-width=".25" stroke-miterlimit="10"/>
    <path d="m22.224 2.924-1.167 11.13-1.605 2.648-3.743 6.172-.45.732-.193.316h.004l-.1.167c-.394.646-1.09 1.047-1.814 1.047h-.721c-.725 0-1.338-.405-1.594-1.05l-.134-.335-.194-.49-.241-.624 3.374-5.564 2.587-4.267 1.572-2.596 1.936-3.194 1.364-2.25.955-1.575.108-.178.056-.09z" fill="url(#b)" stroke="#303131" stroke-width=".4" stroke-miterlimit="10"/>
    <path d="M25.506 1.007c1.048 0 1.813.855 1.702 1.902l-2.13 20.315c-.111 1.047-1.052 1.901-2.103 1.901h-1.19c-1.047 0-1.813-.854-1.705-1.901l1.843-19.81.636-1.066.81-1.34h2.137z" fill="#404041" stroke="#303131" stroke-width=".4" stroke-miterlimit="10"/>
    <path d="m6.805 15.577-.803 7.661c-.112 1.048-1.056 1.902-2.104 1.902H2.713c-1.048 0-1.814-.854-1.702-1.902l.61-5.82c.107-1.017 1.021-1.841 2.04-1.841h3.144z" fill="#ED1C24" stroke="#D52229" stroke-width=".1" stroke-miterlimit="10"/>
    <path d="m16.073 10.6-2.787 4.598-.23.379H3.66c-1.019 0-1.933.824-2.04 1.842l.52-4.977c.107-1.017 1.022-1.842 2.04-1.842h11.892z" fill="#ED1C24" stroke="#D52229" stroke-width=".1" stroke-miterlimit="10"/>
    <path d="m7.812 5.988-.483 4.609H4.18c-1.018 0-1.933.824-2.04 1.842l.483-4.61c.108-1.017 1.022-1.841 2.04-1.841h3.148z" fill="#ED1C24" stroke="#D52229" stroke-width=".1" stroke-miterlimit="10"/>
    <path d="m21.886 1.007-.402.669-.018.03-.034.055-.007.008-.004.007-.48.791-.95 1.571-1.13 1.865-8.403-.012H4.664c-1.018 0-1.933.825-2.04 1.842l.516-4.92c.104-1.003.97-1.828 1.966-1.898h1.015l.007-.008h15.758z" fill="#ED1C24" stroke="#D52229" stroke-width=".1" stroke-miterlimit="10"/>
    <path d="m6.808 15.57-.802 7.661c-.112 1.047-1.056 1.901-2.104 1.901h-1.19c-1.047 0-1.813-.854-1.701-1.901l.61-5.82c.107-1.017 1.021-1.842 2.04-1.842h3.147z" fill="url(#c)"/>
    <path d="m16.073 10.593-2.787 4.598-.23.378H3.66c-1.019 0-1.933.825-2.04 1.842l.52-4.976c.107-1.018 1.022-1.842 2.04-1.842h11.892z" fill="url(#d)"/>
    <path d="m7.812 5.984-.483 4.609H4.185c-1.019 0-1.933.824-2.04 1.842l.482-4.609c.108-1.018 1.022-1.842 2.04-1.842h3.145z" fill="url(#e)"/>
    <path d="m21.89 1-.402.668-.018.03-.034.056-.007.007-.008.011-.48.792-.95 1.57L18.86 6l-8.403-.015h-5.79c-1.019 0-1.933.824-2.04 1.842l.516-4.92c.104-1.004.97-1.828 1.962-1.899h1.015L6.128 1H21.89z" fill="url(#f)"/>
</svg>
